ISO-10303-21;
HEADER;
FILE_DESCRIPTION(('FreeCAD Model'),'2;1');
FILE_NAME('Open CASCADE Shape Model','2025-01-09T12:55:08',(''),(''),
  'Open CASCADE STEP processor 7.8','FreeCAD','Unknown');
FILE_SCHEMA(('AUTOMOTIVE_DESIGN { 1 0 10303 214 1 1 1 1 }'));
ENDSEC;
DATA;
#1 = APPLICATION_PROTOCOL_DEFINITION('international standard',
  'automotive_design',2000,#2);
#2 = APPLICATION_CONTEXT(
  'core data for automotive mechanical design processes');
#3 = SHAPE_DEFINITION_REPRESENTATION(#4,#10);
#4 = PRODUCT_DEFINITION_SHAPE('','',#5);
#5 = PRODUCT_DEFINITION('design','',#6,#9);
#6 = PRODUCT_DEFINITION_FORMATION('','',#7);
#7 = PRODUCT('M20_999xxxx_tin','M20_999xxxx_tin','',(#8));
#8 = PRODUCT_CONTEXT('',#2,'mechanical');
#9 = PRODUCT_DEFINITION_CONTEXT('part definition',#2,'design');
#10 = SHAPE_REPRESENTATION('',(#11,#15,#19),#23);
#11 = AXIS2_PLACEMENT_3D('',#12,#13,#14);
#12 = CARTESIAN_POINT('',(0.,0.,0.));
#13 = DIRECTION('',(0.,0.,1.));
#14 = DIRECTION('',(1.,0.,-0.));
#15 = AXIS2_PLACEMENT_3D('',#16,#17,#18);
#16 = CARTESIAN_POINT('',(0.,0.,0.));
#17 = DIRECTION('',(0.,0.,1.));
#18 = DIRECTION('',(1.,0.,0.));
#19 = AXIS2_PLACEMENT_3D('',#20,#21,#22);
#20 = CARTESIAN_POINT('',(0.,0.,0.));
#21 = DIRECTION('',(0.,0.,1.));
#22 = DIRECTION('',(1.,0.,0.));
#23 = ( GEOMETRIC_REPRESENTATION_CONTEXT(3) 
GLOBAL_UNCERTAINTY_ASSIGNED_CONTEXT((#27)) GLOBAL_UNIT_ASSIGNED_CONTEXT(
(#24,#25,#26)) REPRESENTATION_CONTEXT('Context #1',
  '3D Context with UNIT and UNCERTAINTY') );
#24 = ( LENGTH_UNIT() NAMED_UNIT(*) SI_UNIT(.MILLI.,.METRE.) );
#25 = ( NAMED_UNIT(*) PLANE_ANGLE_UNIT() SI_UNIT($,.RADIAN.) );
#26 = ( NAMED_UNIT(*) SI_UNIT($,.STERADIAN.) SOLID_ANGLE_UNIT() );
#27 = UNCERTAINTY_MEASURE_WITH_UNIT(LENGTH_MEASURE(2.E-07),#24,
  'distance_accuracy_value','confusion accuracy');
#28 = PRODUCT_RELATED_PRODUCT_CATEGORY('part',$,(#7));
#29 = SHAPE_DEFINITION_REPRESENTATION(#30,#36);
#30 = PRODUCT_DEFINITION_SHAPE('','',#31);
#31 = PRODUCT_DEFINITION('design','',#32,#35);
#32 = PRODUCT_DEFINITION_FORMATION('','',#33);
#33 = PRODUCT('Array','Array','',(#34));
#34 = PRODUCT_CONTEXT('',#2,'mechanical');
#35 = PRODUCT_DEFINITION_CONTEXT('part definition',#2,'design');
#36 = SHAPE_REPRESENTATION('',(#11,#37,#41,#45),#49);
#37 = AXIS2_PLACEMENT_3D('',#38,#39,#40);
#38 = CARTESIAN_POINT('',(-2.54,0.,0.));
#39 = DIRECTION('',(0.,0.,1.));
#40 = DIRECTION('',(1.,0.,0.));
#41 = AXIS2_PLACEMENT_3D('',#42,#43,#44);
#42 = CARTESIAN_POINT('',(0.,0.,0.));
#43 = DIRECTION('',(0.,0.,1.));
#44 = DIRECTION('',(1.,0.,0.));
#45 = AXIS2_PLACEMENT_3D('',#46,#47,#48);
#46 = CARTESIAN_POINT('',(2.54,0.,0.));
#47 = DIRECTION('',(0.,0.,1.));
#48 = DIRECTION('',(1.,0.,0.));
#49 = ( GEOMETRIC_REPRESENTATION_CONTEXT(3) 
GLOBAL_UNCERTAINTY_ASSIGNED_CONTEXT((#53)) GLOBAL_UNIT_ASSIGNED_CONTEXT(
(#50,#51,#52)) REPRESENTATION_CONTEXT('Context #1',
  '3D Context with UNIT and UNCERTAINTY') );
#50 = ( LENGTH_UNIT() NAMED_UNIT(*) SI_UNIT(.MILLI.,.METRE.) );
#51 = ( NAMED_UNIT(*) PLANE_ANGLE_UNIT() SI_UNIT($,.RADIAN.) );
#52 = ( NAMED_UNIT(*) SI_UNIT($,.STERADIAN.) SOLID_ANGLE_UNIT() );
#53 = UNCERTAINTY_MEASURE_WITH_UNIT(LENGTH_MEASURE(5.E-07),#50,
  'distance_accuracy_value','confusion accuracy');
#54 = CONTEXT_DEPENDENT_SHAPE_REPRESENTATION(#55,#57);
#55 = ( REPRESENTATION_RELATIONSHIP('','',#36,#10) 
REPRESENTATION_RELATIONSHIP_WITH_TRANSFORMATION(#56) 
SHAPE_REPRESENTATION_RELATIONSHIP() );
#56 = ITEM_DEFINED_TRANSFORMATION('','',#11,#15);
#57 = PRODUCT_DEFINITION_SHAPE('Placement','Placement of an item',#58);
#58 = NEXT_ASSEMBLY_USAGE_OCCURRENCE('3442','Array','',#5,#31,$);
#59 = PRODUCT_RELATED_PRODUCT_CATEGORY('part',$,(#33));
#60 = SHAPE_DEFINITION_REPRESENTATION(#61,#67);
#61 = PRODUCT_DEFINITION_SHAPE('','',#62);
#62 = PRODUCT_DEFINITION('design','',#63,#66);
#63 = PRODUCT_DEFINITION_FORMATION('','',#64);
#64 = PRODUCT('Body','Body','',(#65));
#65 = PRODUCT_CONTEXT('',#2,'mechanical');
#66 = PRODUCT_DEFINITION_CONTEXT('part definition',#2,'design');
#67 = ADVANCED_BREP_SHAPE_REPRESENTATION('',(#11,#68),#1159);
#68 = MANIFOLD_SOLID_BREP('',#69);
#69 = CLOSED_SHELL('',(#70,#135,#232,#256,#312,#336,#360,#460,#502,#542,
    #598,#622,#655,#686,#710,#734,#751,#775,#799,#823,#856,#880,#896,
    #984,#1008,#1025,#1037,#1061,#1085,#1102,#1135,#1147));
#70 = ADVANCED_FACE('',(#71),#130,.F.);
#71 = FACE_BOUND('',#72,.F.);
#72 = EDGE_LOOP('',(#73,#83,#91,#99,#107,#115));
#73 = ORIENTED_EDGE('',*,*,#74,.F.);
#74 = EDGE_CURVE('',#75,#77,#79,.T.);
#75 = VERTEX_POINT('',#76);
#76 = CARTESIAN_POINT('',(-0.77,0.64,-1.27));
#77 = VERTEX_POINT('',#78);
#78 = CARTESIAN_POINT('',(-1.24,0.64,-0.8));
#79 = LINE('',#80,#81);
#80 = CARTESIAN_POINT('',(-0.89,0.64,-1.15));
#81 = VECTOR('',#82,1.);
#82 = DIRECTION('',(-0.707106781187,0.,0.707106781187));
#83 = ORIENTED_EDGE('',*,*,#84,.T.);
#84 = EDGE_CURVE('',#75,#85,#87,.T.);
#85 = VERTEX_POINT('',#86);
#86 = CARTESIAN_POINT('',(-0.77,2.64,-1.27));
#87 = LINE('',#88,#89);
#88 = CARTESIAN_POINT('',(-0.77,0.64,-1.27));
#89 = VECTOR('',#90,1.);
#90 = DIRECTION('',(0.,1.,0.));
#91 = ORIENTED_EDGE('',*,*,#92,.T.);
#92 = EDGE_CURVE('',#85,#93,#95,.T.);
#93 = VERTEX_POINT('',#94);
#94 = CARTESIAN_POINT('',(-1.02,2.64,-1.02));
#95 = LINE('',#96,#97);
#96 = CARTESIAN_POINT('',(-1.02,2.64,-1.02));
#97 = VECTOR('',#98,1.);
#98 = DIRECTION('',(-0.707106781187,0.,0.707106781187));
#99 = ORIENTED_EDGE('',*,*,#100,.T.);
#100 = EDGE_CURVE('',#93,#101,#103,.T.);
#101 = VERTEX_POINT('',#102);
#102 = CARTESIAN_POINT('',(-1.27,2.39,-0.77));
#103 = LINE('',#104,#105);
#104 = CARTESIAN_POINT('',(-1.436666666667,2.223333333333,
    -0.603333333333));
#105 = VECTOR('',#106,1.);
#106 = DIRECTION('',(-0.57735026919,-0.57735026919,0.57735026919));
#107 = ORIENTED_EDGE('',*,*,#108,.F.);
#108 = EDGE_CURVE('',#109,#101,#111,.T.);
#109 = VERTEX_POINT('',#110);
#110 = CARTESIAN_POINT('',(-1.27,0.89,-0.77));
#111 = LINE('',#112,#113);
#112 = CARTESIAN_POINT('',(-1.27,0.64,-0.77));
#113 = VECTOR('',#114,1.);
#114 = DIRECTION('',(0.,1.,0.));
#115 = ORIENTED_EDGE('',*,*,#116,.T.);
#116 = EDGE_CURVE('',#109,#117,#119,.T.);
#117 = VERTEX_POINT('',#118);
#118 = CARTESIAN_POINT('',(-1.093223304703,0.64,-0.946776695297));
#119 = B_SPLINE_CURVE_WITH_KNOTS('',9,(#120,#121,#122,#123,#124,#125,
    #126,#127,#128,#129),.UNSPECIFIED.,.F.,.F.,(10,10),(0.,1.),
  .PIECEWISE_BEZIER_KNOTS.);
#120 = CARTESIAN_POINT('',(-1.27,0.89,-0.77));
#121 = CARTESIAN_POINT('',(-1.27,0.846146013747,-0.77));
#122 = CARTESIAN_POINT('',(-1.264583736288,0.802291548558,
    -0.775416263712));
#123 = CARTESIAN_POINT('',(-1.253207351833,0.759968980314,
    -0.786792648167));
#124 = CARTESIAN_POINT('',(-1.235723988261,0.721230228965,
    -0.804276011739));
#125 = CARTESIAN_POINT('',(-1.212561554261,0.688473600665,
    -0.827438445739));
#126 = CARTESIAN_POINT('',(-1.185169120488,0.663748390786,
    -0.854830879512));
#127 = CARTESIAN_POINT('',(-1.155242545486,0.647659753599,
    -0.884757454514));
#128 = CARTESIAN_POINT('',(-1.124232755765,0.64,-0.915767244235));
#129 = CARTESIAN_POINT('',(-1.093223304703,0.64,-0.946776695297));
#130 = PLANE('',#131);
#131 = AXIS2_PLACEMENT_3D('',#132,#133,#134);
#132 = CARTESIAN_POINT('',(-1.02,0.64,-1.02));
#133 = DIRECTION('',(0.707106781187,0.,0.707106781187));
#134 = DIRECTION('',(0.,1.,0.));
#135 = ADVANCED_FACE('',(#136,#193),#227,.T.);
#136 = FACE_BOUND('',#137,.T.);
#137 = EDGE_LOOP('',(#138,#139,#147,#155,#163,#171,#179,#187));
#138 = ORIENTED_EDGE('',*,*,#92,.T.);
#139 = ORIENTED_EDGE('',*,*,#140,.T.);
#140 = EDGE_CURVE('',#93,#141,#143,.T.);
#141 = VERTEX_POINT('',#142);
#142 = CARTESIAN_POINT('',(-1.02,2.64,1.02));
#143 = LINE('',#144,#145);
#144 = CARTESIAN_POINT('',(-1.02,2.64,-0.77));
#145 = VECTOR('',#146,1.);
#146 = DIRECTION('',(0.,0.,1.));
#147 = ORIENTED_EDGE('',*,*,#148,.T.);
#148 = EDGE_CURVE('',#141,#149,#151,.T.);
#149 = VERTEX_POINT('',#150);
#150 = CARTESIAN_POINT('',(-0.77,2.64,1.27));
#151 = LINE('',#152,#153);
#152 = CARTESIAN_POINT('',(-1.655,2.64,0.385));
#153 = VECTOR('',#154,1.);
#154 = DIRECTION('',(0.707106781187,0.,0.707106781187));
#155 = ORIENTED_EDGE('',*,*,#156,.T.);
#156 = EDGE_CURVE('',#149,#157,#159,.T.);
#157 = VERTEX_POINT('',#158);
#158 = CARTESIAN_POINT('',(0.77,2.64,1.27));
#159 = LINE('',#160,#161);
#160 = CARTESIAN_POINT('',(-1.27,2.64,1.27));
#161 = VECTOR('',#162,1.);
#162 = DIRECTION('',(1.,0.,0.));
#163 = ORIENTED_EDGE('',*,*,#164,.F.);
#164 = EDGE_CURVE('',#165,#157,#167,.T.);
#165 = VERTEX_POINT('',#166);
#166 = CARTESIAN_POINT('',(1.02,2.64,1.02));
#167 = LINE('',#168,#169);
#168 = CARTESIAN_POINT('',(1.02,2.64,1.02));
#169 = VECTOR('',#170,1.);
#170 = DIRECTION('',(-0.707106781187,0.,0.707106781187));
#171 = ORIENTED_EDGE('',*,*,#172,.F.);
#172 = EDGE_CURVE('',#173,#165,#175,.T.);
#173 = VERTEX_POINT('',#174);
#174 = CARTESIAN_POINT('',(1.02,2.64,-1.02));
#175 = LINE('',#176,#177);
#176 = CARTESIAN_POINT('',(1.02,2.64,-0.77));
#177 = VECTOR('',#178,1.);
#178 = DIRECTION('',(0.,0.,1.));
#179 = ORIENTED_EDGE('',*,*,#180,.F.);
#180 = EDGE_CURVE('',#181,#173,#183,.T.);
#181 = VERTEX_POINT('',#182);
#182 = CARTESIAN_POINT('',(0.77,2.64,-1.27));
#183 = LINE('',#184,#185);
#184 = CARTESIAN_POINT('',(0.385,2.64,-1.655));
#185 = VECTOR('',#186,1.);
#186 = DIRECTION('',(0.707106781187,0.,0.707106781187));
#187 = ORIENTED_EDGE('',*,*,#188,.F.);
#188 = EDGE_CURVE('',#85,#181,#189,.T.);
#189 = LINE('',#190,#191);
#190 = CARTESIAN_POINT('',(-1.27,2.64,-1.27));
#191 = VECTOR('',#192,1.);
#192 = DIRECTION('',(1.,0.,0.));
#193 = FACE_BOUND('',#194,.T.);
#194 = EDGE_LOOP('',(#195,#205,#213,#221));
#195 = ORIENTED_EDGE('',*,*,#196,.F.);
#196 = EDGE_CURVE('',#197,#199,#201,.T.);
#197 = VERTEX_POINT('',#198);
#198 = CARTESIAN_POINT('',(-0.32,2.64,-0.32));
#199 = VERTEX_POINT('',#200);
#200 = CARTESIAN_POINT('',(-0.32,2.64,0.32));
#201 = LINE('',#202,#203);
#202 = CARTESIAN_POINT('',(-0.32,2.64,-0.32));
#203 = VECTOR('',#204,1.);
#204 = DIRECTION('',(0.,2.22044604925E-16,1.));
#205 = ORIENTED_EDGE('',*,*,#206,.F.);
#206 = EDGE_CURVE('',#207,#197,#209,.T.);
#207 = VERTEX_POINT('',#208);
#208 = CARTESIAN_POINT('',(0.32,2.64,-0.32));
#209 = LINE('',#210,#211);
#210 = CARTESIAN_POINT('',(0.32,2.64,-0.32));
#211 = VECTOR('',#212,1.);
#212 = DIRECTION('',(-1.,0.,0.));
#213 = ORIENTED_EDGE('',*,*,#214,.F.);
#214 = EDGE_CURVE('',#215,#207,#217,.T.);
#215 = VERTEX_POINT('',#216);
#216 = CARTESIAN_POINT('',(0.32,2.64,0.32));
#217 = LINE('',#218,#219);
#218 = CARTESIAN_POINT('',(0.32,2.64,0.32));
#219 = VECTOR('',#220,1.);
#220 = DIRECTION('',(0.,-2.22044604925E-16,-1.));
#221 = ORIENTED_EDGE('',*,*,#222,.F.);
#222 = EDGE_CURVE('',#199,#215,#223,.T.);
#223 = LINE('',#224,#225);
#224 = CARTESIAN_POINT('',(-0.32,2.64,0.32));
#225 = VECTOR('',#226,1.);
#226 = DIRECTION('',(1.,0.,0.));
#227 = PLANE('',#228);
#228 = AXIS2_PLACEMENT_3D('',#229,#230,#231);
#229 = CARTESIAN_POINT('',(-1.27,2.64,-1.27));
#230 = DIRECTION('',(0.,1.,0.));
#231 = DIRECTION('',(1.,0.,0.));
#232 = ADVANCED_FACE('',(#233),#251,.T.);
#233 = FACE_BOUND('',#234,.F.);
#234 = EDGE_LOOP('',(#235,#236,#237,#245));
#235 = ORIENTED_EDGE('',*,*,#100,.F.);
#236 = ORIENTED_EDGE('',*,*,#140,.T.);
#237 = ORIENTED_EDGE('',*,*,#238,.T.);
#238 = EDGE_CURVE('',#141,#239,#241,.T.);
#239 = VERTEX_POINT('',#240);
#240 = CARTESIAN_POINT('',(-1.27,2.39,0.77));
#241 = LINE('',#242,#243);
#242 = CARTESIAN_POINT('',(-1.693333333333,1.966666666667,0.346666666667
    ));
#243 = VECTOR('',#244,1.);
#244 = DIRECTION('',(-0.57735026919,-0.57735026919,-0.57735026919));
#245 = ORIENTED_EDGE('',*,*,#246,.F.);
#246 = EDGE_CURVE('',#101,#239,#247,.T.);
#247 = LINE('',#248,#249);
#248 = CARTESIAN_POINT('',(-1.27,2.39,-0.77));
#249 = VECTOR('',#250,1.);
#250 = DIRECTION('',(0.,0.,1.));
#251 = PLANE('',#252);
#252 = AXIS2_PLACEMENT_3D('',#253,#254,#255);
#253 = CARTESIAN_POINT('',(-1.145,2.515,-0.77));
#254 = DIRECTION('',(-0.707106781187,0.707106781187,0.));
#255 = DIRECTION('',(-0.,-0.,-1.));
#256 = ADVANCED_FACE('',(#257),#307,.F.);
#257 = FACE_BOUND('',#258,.F.);
#258 = EDGE_LOOP('',(#259,#267,#275,#283,#291,#299,#305,#306));
#259 = ORIENTED_EDGE('',*,*,#260,.F.);
#260 = EDGE_CURVE('',#261,#75,#263,.T.);
#261 = VERTEX_POINT('',#262);
#262 = CARTESIAN_POINT('',(-0.75,0.64,-1.27));
#263 = LINE('',#264,#265);
#264 = CARTESIAN_POINT('',(-0.75,0.64,-1.27));
#265 = VECTOR('',#266,1.);
#266 = DIRECTION('',(-1.,0.,0.));
#267 = ORIENTED_EDGE('',*,*,#268,.F.);
#268 = EDGE_CURVE('',#269,#261,#271,.T.);
#269 = VERTEX_POINT('',#270);
#270 = CARTESIAN_POINT('',(-0.75,0.,-1.27));
#271 = LINE('',#272,#273);
#272 = CARTESIAN_POINT('',(-0.75,0.,-1.27));
#273 = VECTOR('',#274,1.);
#274 = DIRECTION('',(0.,1.,0.));
#275 = ORIENTED_EDGE('',*,*,#276,.F.);
#276 = EDGE_CURVE('',#277,#269,#279,.T.);
#277 = VERTEX_POINT('',#278);
#278 = CARTESIAN_POINT('',(0.75,0.,-1.27));
#279 = LINE('',#280,#281);
#280 = CARTESIAN_POINT('',(0.75,0.,-1.27));
#281 = VECTOR('',#282,1.);
#282 = DIRECTION('',(-1.,0.,0.));
#283 = ORIENTED_EDGE('',*,*,#284,.F.);
#284 = EDGE_CURVE('',#285,#277,#287,.T.);
#285 = VERTEX_POINT('',#286);
#286 = CARTESIAN_POINT('',(0.75,0.64,-1.27));
#287 = LINE('',#288,#289);
#288 = CARTESIAN_POINT('',(0.75,0.64,-1.27));
#289 = VECTOR('',#290,1.);
#290 = DIRECTION('',(0.,-1.,0.));
#291 = ORIENTED_EDGE('',*,*,#292,.F.);
#292 = EDGE_CURVE('',#293,#285,#295,.T.);
#293 = VERTEX_POINT('',#294);
#294 = CARTESIAN_POINT('',(0.77,0.64,-1.27));
#295 = LINE('',#296,#297);
#296 = CARTESIAN_POINT('',(1.27,0.64,-1.27));
#297 = VECTOR('',#298,1.);
#298 = DIRECTION('',(-1.,0.,0.));
#299 = ORIENTED_EDGE('',*,*,#300,.F.);
#300 = EDGE_CURVE('',#181,#293,#301,.T.);
#301 = LINE('',#302,#303);
#302 = CARTESIAN_POINT('',(0.77,2.64,-1.27));
#303 = VECTOR('',#304,1.);
#304 = DIRECTION('',(0.,-1.,0.));
#305 = ORIENTED_EDGE('',*,*,#188,.F.);
#306 = ORIENTED_EDGE('',*,*,#84,.F.);
#307 = PLANE('',#308);
#308 = AXIS2_PLACEMENT_3D('',#309,#310,#311);
#309 = CARTESIAN_POINT('',(3.21493153849E-16,1.384247104247,-1.27));
#310 = DIRECTION('',(0.,0.,1.));
#311 = DIRECTION('',(1.,0.,0.));
#312 = ADVANCED_FACE('',(#313),#331,.T.);
#313 = FACE_BOUND('',#314,.T.);
#314 = EDGE_LOOP('',(#315,#316,#324,#330));
#315 = ORIENTED_EDGE('',*,*,#108,.F.);
#316 = ORIENTED_EDGE('',*,*,#317,.T.);
#317 = EDGE_CURVE('',#109,#318,#320,.T.);
#318 = VERTEX_POINT('',#319);
#319 = CARTESIAN_POINT('',(-1.27,0.89,0.77));
#320 = LINE('',#321,#322);
#321 = CARTESIAN_POINT('',(-1.27,0.89,-0.77));
#322 = VECTOR('',#323,1.);
#323 = DIRECTION('',(0.,0.,1.));
#324 = ORIENTED_EDGE('',*,*,#325,.T.);
#325 = EDGE_CURVE('',#318,#239,#326,.T.);
#326 = LINE('',#327,#328);
#327 = CARTESIAN_POINT('',(-1.27,0.64,0.77));
#328 = VECTOR('',#329,1.);
#329 = DIRECTION('',(0.,1.,0.));
#330 = ORIENTED_EDGE('',*,*,#246,.F.);
#331 = PLANE('',#332);
#332 = AXIS2_PLACEMENT_3D('',#333,#334,#335);
#333 = CARTESIAN_POINT('',(-1.27,0.64,-1.27));
#334 = DIRECTION('',(-1.,0.,0.));
#335 = DIRECTION('',(0.,1.,0.));
#336 = ADVANCED_FACE('',(#337),#355,.T.);
#337 = FACE_BOUND('',#338,.T.);
#338 = EDGE_LOOP('',(#339,#340,#348,#354));
#339 = ORIENTED_EDGE('',*,*,#260,.F.);
#340 = ORIENTED_EDGE('',*,*,#341,.T.);
#341 = EDGE_CURVE('',#261,#342,#344,.T.);
#342 = VERTEX_POINT('',#343);
#343 = CARTESIAN_POINT('',(-0.75,0.64,-0.8));
#344 = LINE('',#345,#346);
#345 = CARTESIAN_POINT('',(-0.75,0.64,-1.27));
#346 = VECTOR('',#347,1.);
#347 = DIRECTION('',(0.,0.,1.));
#348 = ORIENTED_EDGE('',*,*,#349,.T.);
#349 = EDGE_CURVE('',#342,#77,#350,.T.);
#350 = LINE('',#351,#352);
#351 = CARTESIAN_POINT('',(0.75,0.64,-0.8));
#352 = VECTOR('',#353,1.);
#353 = DIRECTION('',(-1.,-0.,-0.));
#354 = ORIENTED_EDGE('',*,*,#74,.F.);
#355 = PLANE('',#356);
#356 = AXIS2_PLACEMENT_3D('',#357,#358,#359);
#357 = CARTESIAN_POINT('',(-0.75,0.64,-1.27));
#358 = DIRECTION('',(0.,-1.,0.));
#359 = DIRECTION('',(-1.,0.,0.));
#360 = ADVANCED_FACE('',(#361),#378,.T.);
#361 = FACE_BOUND('',#362,.T.);
#362 = EDGE_LOOP('',(#363,#371,#372));
#363 = ORIENTED_EDGE('',*,*,#364,.T.);
#364 = EDGE_CURVE('',#365,#109,#367,.T.);
#365 = VERTEX_POINT('',#366);
#366 = CARTESIAN_POINT('',(-1.02,0.64,-0.77));
#367 = LINE('',#368,#369);
#368 = CARTESIAN_POINT('',(-1.02,0.64,-0.77));
#369 = VECTOR('',#370,1.);
#370 = DIRECTION('',(-0.707106781187,0.707106781187,0.));
#371 = ORIENTED_EDGE('',*,*,#116,.T.);
#372 = ORIENTED_EDGE('',*,*,#373,.T.);
#373 = EDGE_CURVE('',#117,#365,#374,.T.);
#374 = LINE('',#375,#376);
#375 = CARTESIAN_POINT('',(-1.093223304703,0.64,-0.946776695297));
#376 = VECTOR('',#377,1.);
#377 = DIRECTION('',(0.382683432365,0.,0.923879532511));
#378 = B_SPLINE_SURFACE_WITH_KNOTS('',8,8,(
    (#379,#380,#381,#382,#383,#384,#385,#386,#387)
    ,(#388,#389,#390,#391,#392,#393,#394,#395,#396)
    ,(#397,#398,#399,#400,#401,#402,#403,#404,#405)
    ,(#406,#407,#408,#409,#410,#411,#412,#413,#414)
    ,(#415,#416,#417,#418,#419,#420,#421,#422,#423)
    ,(#424,#425,#426,#427,#428,#429,#430,#431,#432)
    ,(#433,#434,#435,#436,#437,#438,#439,#440,#441)
    ,(#442,#443,#444,#445,#446,#447,#448,#449,#450)
    ,(#451,#452,#453,#454,#455,#456,#457,#458,#459
  )),.UNSPECIFIED.,.F.,.F.,.F.,(9,9),(9,9),(-0.245750911579,
    0.132502053703),(-8.530067295391E-02,9.431352701606E-02),
  .PIECEWISE_BEZIER_KNOTS.);
#379 = CARTESIAN_POINT('',(-1.371481891362,0.811958680999,
    -0.759610136844));
#380 = CARTESIAN_POINT('',(-1.348146172663,0.83938218571,-0.764632206685
    ));
#381 = CARTESIAN_POINT('',(-1.325560306304,0.865020263916,
    -0.767866000681));
#382 = CARTESIAN_POINT('',(-1.303382619489,0.889504689715,
    -0.769980654503));
#383 = CARTESIAN_POINT('',(-1.282871146315,0.910631755774,
    -0.768672159402));
#384 = CARTESIAN_POINT('',(-1.259966067024,0.936592270545,
    -0.772239742278));
#385 = CARTESIAN_POINT('',(-1.237960087946,0.960954865081,
    -0.774190834017));
#386 = CARTESIAN_POINT('',(-1.215359267012,0.986530013966,
    -0.777354232256));
#387 = CARTESIAN_POINT('',(-1.192820040282,1.011982105284,
    -0.780394494081));
#388 = CARTESIAN_POINT('',(-1.34155578295,0.776634853262,-0.77170203362)
  );
#389 = CARTESIAN_POINT('',(-1.319546450006,0.800861234477,
    -0.773528068561));
#390 = CARTESIAN_POINT('',(-1.298366879314,0.823140481479,
    -0.773398960218));
#391 = CARTESIAN_POINT('',(-1.277351728317,0.84460947198,-0.772520043304
    ));
#392 = CARTESIAN_POINT('',(-1.258964621513,0.860946261753,
    -0.766419875125));
#393 = CARTESIAN_POINT('',(-1.237335865432,0.883710649522,
    -0.766780735311));
#394 = CARTESIAN_POINT('',(-1.216859920692,0.90441850321,-0.765093538316
    ));
#395 = CARTESIAN_POINT('',(-1.195741518935,0.926431662632,
    -0.764695149251));
#396 = CARTESIAN_POINT('',(-1.174729246354,0.948214214051,
    -0.764069944745));
#397 = CARTESIAN_POINT('',(-1.310289742139,0.74456349687,-0.787049279486
    ));
#398 = CARTESIAN_POINT('',(-1.289694957502,0.765392278886,
    -0.785470124107));
#399 = CARTESIAN_POINT('',(-1.269675773787,0.785038334825,
    -0.782742466754));
#400 = CARTESIAN_POINT('',(-1.248556610763,0.806045887302,
    -0.781351375443));
#401 = CARTESIAN_POINT('',(-1.232973188357,0.815787335702,
    -0.768808688973));
#402 = CARTESIAN_POINT('',(-1.213452823814,0.834571553757,
    -0.764954547702));
#403 = CARTESIAN_POINT('',(-1.193613832052,0.852782446135,
    -0.760924883203));
#404 = CARTESIAN_POINT('',(-1.1740857323,0.871231215233,-0.756928059957)
  );
#405 = CARTESIAN_POINT('',(-1.154638878979,0.889251671051,
    -0.752545326324));
#406 = CARTESIAN_POINT('',(-1.276160614904,0.719342614977,
    -0.809224148158));
#407 = CARTESIAN_POINT('',(-1.256211810632,0.738602093128,
    -0.806116393043));
#408 = CARTESIAN_POINT('',(-1.238508161116,0.752197136411,
    -0.797149346711));
#409 = CARTESIAN_POINT('',(-1.224123327181,0.759821757592,
    -0.782292956442));
#410 = CARTESIAN_POINT('',(-1.201334304468,0.783392118143,
    -0.783840508358));
#411 = CARTESIAN_POINT('',(-1.188536050576,0.786422493531,
    -0.764423323406));
#412 = CARTESIAN_POINT('',(-1.168144665994,0.807122451182,-0.7626135478)
  );
#413 = CARTESIAN_POINT('',(-1.150938809413,0.819592906952,
    -0.752725393949));
#414 = CARTESIAN_POINT('',(-1.132801791355,0.834475942896,
    -0.745205659889));
#415 = CARTESIAN_POINT('',(-1.245247817351,0.686630518427,
    -0.823950965917));
#416 = CARTESIAN_POINT('',(-1.22800401323,0.699532409138,-0.814371852673
    ));
#417 = CARTESIAN_POINT('',(-1.209313077129,0.716025982786,
    -0.808842294291));
#418 = CARTESIAN_POINT('',(-1.186549033349,0.740429533179,-0.81070629732
    ));
#419 = CARTESIAN_POINT('',(-1.18058342277,0.72820916982,-0.775772327886)
  );
#420 = CARTESIAN_POINT('',(-1.155424890344,0.758884677981,
    -0.784233297867));
#421 = CARTESIAN_POINT('',(-1.143685109085,0.758318693219,
    -0.761292944352));
#422 = CARTESIAN_POINT('',(-1.124999999793,0.774662317231,
    -0.755210070325));
#423 = CARTESIAN_POINT('',(-1.108893832213,0.78466954408,-0.742826177771
    ));
#424 = CARTESIAN_POINT('',(-1.205994215417,0.673336434863,-0.85818642837
    ));
#425 = CARTESIAN_POINT('',(-1.188823961254,0.685856720552,-0.84847620208
    ));
#426 = CARTESIAN_POINT('',(-1.172773106355,0.695753945228,
    -0.835512306485));
#427 = CARTESIAN_POINT('',(-1.165769402589,0.684798536733,
    -0.802283522847));
#428 = CARTESIAN_POINT('',(-1.140981386471,0.714460486794,
    -0.809824482476));
#429 = CARTESIAN_POINT('',(-1.133323491145,0.704898276688,
    -0.777610180424));
#430 = CARTESIAN_POINT('',(-1.112832629976,0.725408999842,
    -0.775788301525));
#431 = CARTESIAN_POINT('',(-1.09967313331,0.728288685615,-0.756278253344
    ));
#432 = CARTESIAN_POINT('',(-1.084326127098,0.736467473564,
    -0.742060219528));
#433 = CARTESIAN_POINT('',(-1.172731545208,0.646278935757,
    -0.878248206339));
#434 = CARTESIAN_POINT('',(-1.157680420266,0.653781863451,
    -0.863298111363));
#435 = CARTESIAN_POINT('',(-1.144847040522,0.655930657874,
    -0.843457714424));
#436 = CARTESIAN_POINT('',(-1.126419856276,0.671460473805,-0.8364371359)
  );
#437 = CARTESIAN_POINT('',(-1.115724979979,0.668647370863,
    -0.811157708614));
#438 = CARTESIAN_POINT('',(-1.098783684745,0.680541636059,-0.80078161601
    ));
#439 = CARTESIAN_POINT('',(-1.086005908091,0.682562562073,
    -0.780355102599));
#440 = CARTESIAN_POINT('',(-1.070799419844,0.690430774304,
    -0.765831935957));
#441 = CARTESIAN_POINT('',(-1.0574199258,0.693881031759,-0.746896072499)
  );
#442 = CARTESIAN_POINT('',(-1.132090025184,0.636769851973,
    -0.916290587258));
#443 = CARTESIAN_POINT('',(-1.119256062816,0.638919557789,
    -0.896079222359));
#444 = CARTESIAN_POINT('',(-1.104241863221,0.646299323123,
    -0.881008040684));
#445 = CARTESIAN_POINT('',(-1.093237995856,0.644070313666,
    -0.856504380959));
#446 = CARTESIAN_POINT('',(-1.078667283935,0.650364639088,
    -0.840308581262));
#447 = CARTESIAN_POINT('',(-1.06656327516,0.65077708749,-0.818390907434)
  );
#448 = CARTESIAN_POINT('',(-1.054139545843,0.651916833883,
    -0.797127502244));
#449 = CARTESIAN_POINT('',(-1.041632499875,0.653280241409,-0.77610652288
    ));
#450 = CARTESIAN_POINT('',(-1.029657361121,0.65335321378,-0.753796400318
    ));
#451 = CARTESIAN_POINT('',(-1.085803509853,0.640852259895,
    -0.967744227552));
#452 = CARTESIAN_POINT('',(-1.074507151798,0.639296172802,
    -0.943816382108));
#453 = CARTESIAN_POINT('',(-1.062676391506,0.639018376105,
    -0.921136252359));
#454 = CARTESIAN_POINT('',(-1.052666482183,0.634375606419,
    -0.894132665195));
#455 = CARTESIAN_POINT('',(-1.040647288068,0.634533231343,
    -0.871891529161));
#456 = CARTESIAN_POINT('',(-1.030258298913,0.630809253337,
    -0.845795214454));
#457 = CARTESIAN_POINT('',(-1.019789579689,0.62724620279,-0.819855560136
    ));
#458 = CARTESIAN_POINT('',(-1.009254385859,0.62386114853,-0.794092057615
    ));
#459 = CARTESIAN_POINT('',(-0.998984955873,0.619829589848,
    -0.767683403307));
#460 = ADVANCED_FACE('',(#461),#497,.T.);
#461 = FACE_BOUND('',#462,.F.);
#462 = EDGE_LOOP('',(#463,#478,#479,#480,#481,#489));
#463 = ORIENTED_EDGE('',*,*,#464,.F.);
#464 = EDGE_CURVE('',#318,#465,#467,.T.);
#465 = VERTEX_POINT('',#466);
#466 = CARTESIAN_POINT('',(-1.093223304703,0.64,0.946776695297));
#467 = B_SPLINE_CURVE_WITH_KNOTS('',9,(#468,#469,#470,#471,#472,#473,
    #474,#475,#476,#477),.UNSPECIFIED.,.F.,.F.,(10,10),(0.,1.),
  .PIECEWISE_BEZIER_KNOTS.);
#468 = CARTESIAN_POINT('',(-1.27,0.89,0.77));
#469 = CARTESIAN_POINT('',(-1.27,0.846146013747,0.77));
#470 = CARTESIAN_POINT('',(-1.264583736288,0.802291548558,0.775416263712
    ));
#471 = CARTESIAN_POINT('',(-1.253207351833,0.759968980314,0.786792648167
    ));
#472 = CARTESIAN_POINT('',(-1.235723988261,0.721230228965,0.804276011739
    ));
#473 = CARTESIAN_POINT('',(-1.212561554261,0.688473600665,0.827438445739
    ));
#474 = CARTESIAN_POINT('',(-1.185169120488,0.663748390786,0.854830879512
    ));
#475 = CARTESIAN_POINT('',(-1.155242545486,0.647659753599,0.884757454514
    ));
#476 = CARTESIAN_POINT('',(-1.124232755765,0.64,0.915767244235));
#477 = CARTESIAN_POINT('',(-1.093223304703,0.64,0.946776695297));
#478 = ORIENTED_EDGE('',*,*,#325,.T.);
#479 = ORIENTED_EDGE('',*,*,#238,.F.);
#480 = ORIENTED_EDGE('',*,*,#148,.T.);
#481 = ORIENTED_EDGE('',*,*,#482,.F.);
#482 = EDGE_CURVE('',#483,#149,#485,.T.);
#483 = VERTEX_POINT('',#484);
#484 = CARTESIAN_POINT('',(-0.77,0.64,1.27));
#485 = LINE('',#486,#487);
#486 = CARTESIAN_POINT('',(-0.77,0.64,1.27));
#487 = VECTOR('',#488,1.);
#488 = DIRECTION('',(0.,1.,0.));
#489 = ORIENTED_EDGE('',*,*,#490,.F.);
#490 = EDGE_CURVE('',#491,#483,#493,.T.);
#491 = VERTEX_POINT('',#492);
#492 = CARTESIAN_POINT('',(-1.24,0.64,0.8));
#493 = LINE('',#494,#495);
#494 = CARTESIAN_POINT('',(-1.525,0.64,0.515));
#495 = VECTOR('',#496,1.);
#496 = DIRECTION('',(0.707106781187,0.,0.707106781187));
#497 = PLANE('',#498);
#498 = AXIS2_PLACEMENT_3D('',#499,#500,#501);
#499 = CARTESIAN_POINT('',(-1.02,0.64,1.02));
#500 = DIRECTION('',(-0.707106781187,0.,0.707106781187));
#501 = DIRECTION('',(-0.,-1.,-0.));
#502 = ADVANCED_FACE('',(#503),#537,.F.);
#503 = FACE_BOUND('',#504,.F.);
#504 = EDGE_LOOP('',(#505,#506,#507,#515,#523,#531));
#505 = ORIENTED_EDGE('',*,*,#180,.F.);
#506 = ORIENTED_EDGE('',*,*,#300,.T.);
#507 = ORIENTED_EDGE('',*,*,#508,.T.);
#508 = EDGE_CURVE('',#293,#509,#511,.T.);
#509 = VERTEX_POINT('',#510);
#510 = CARTESIAN_POINT('',(1.02,0.64,-1.02));
#511 = LINE('',#512,#513);
#512 = CARTESIAN_POINT('',(1.02,0.64,-1.02));
#513 = VECTOR('',#514,1.);
#514 = DIRECTION('',(0.707106781187,0.,0.707106781187));
#515 = ORIENTED_EDGE('',*,*,#516,.T.);
#516 = EDGE_CURVE('',#509,#517,#519,.T.);
#517 = VERTEX_POINT('',#518);
#518 = CARTESIAN_POINT('',(1.27,0.89,-0.77));
#519 = LINE('',#520,#521);
#520 = CARTESIAN_POINT('',(1.436666666667,1.056666666667,-0.603333333333
    ));
#521 = VECTOR('',#522,1.);
#522 = DIRECTION('',(0.57735026919,0.57735026919,0.57735026919));
#523 = ORIENTED_EDGE('',*,*,#524,.F.);
#524 = EDGE_CURVE('',#525,#517,#527,.T.);
#525 = VERTEX_POINT('',#526);
#526 = CARTESIAN_POINT('',(1.27,2.39,-0.77));
#527 = LINE('',#528,#529);
#528 = CARTESIAN_POINT('',(1.27,2.64,-0.77));
#529 = VECTOR('',#530,1.);
#530 = DIRECTION('',(0.,-1.,0.));
#531 = ORIENTED_EDGE('',*,*,#532,.F.);
#532 = EDGE_CURVE('',#173,#525,#533,.T.);
#533 = LINE('',#534,#535);
#534 = CARTESIAN_POINT('',(1.103333333333,2.556666666667,-0.936666666667
    ));
#535 = VECTOR('',#536,1.);
#536 = DIRECTION('',(0.57735026919,-0.57735026919,0.57735026919));
#537 = PLANE('',#538);
#538 = AXIS2_PLACEMENT_3D('',#539,#540,#541);
#539 = CARTESIAN_POINT('',(1.02,2.64,-1.02));
#540 = DIRECTION('',(-0.707106781187,0.,0.707106781187));
#541 = DIRECTION('',(0.,-1.,0.));
#542 = ADVANCED_FACE('',(#543),#593,.T.);
#543 = FACE_BOUND('',#544,.T.);
#544 = EDGE_LOOP('',(#545,#553,#561,#569,#577,#585,#591,#592));
#545 = ORIENTED_EDGE('',*,*,#546,.F.);
#546 = EDGE_CURVE('',#547,#483,#549,.T.);
#547 = VERTEX_POINT('',#548);
#548 = CARTESIAN_POINT('',(-0.75,0.64,1.27));
#549 = LINE('',#550,#551);
#550 = CARTESIAN_POINT('',(-0.75,0.64,1.27));
#551 = VECTOR('',#552,1.);
#552 = DIRECTION('',(-1.,0.,0.));
#553 = ORIENTED_EDGE('',*,*,#554,.F.);
#554 = EDGE_CURVE('',#555,#547,#557,.T.);
#555 = VERTEX_POINT('',#556);
#556 = CARTESIAN_POINT('',(-0.75,0.,1.27));
#557 = LINE('',#558,#559);
#558 = CARTESIAN_POINT('',(-0.75,0.,1.27));
#559 = VECTOR('',#560,1.);
#560 = DIRECTION('',(0.,1.,0.));
#561 = ORIENTED_EDGE('',*,*,#562,.F.);
#562 = EDGE_CURVE('',#563,#555,#565,.T.);
#563 = VERTEX_POINT('',#564);
#564 = CARTESIAN_POINT('',(0.75,0.,1.27));
#565 = LINE('',#566,#567);
#566 = CARTESIAN_POINT('',(0.75,0.,1.27));
#567 = VECTOR('',#568,1.);
#568 = DIRECTION('',(-1.,0.,0.));
#569 = ORIENTED_EDGE('',*,*,#570,.F.);
#570 = EDGE_CURVE('',#571,#563,#573,.T.);
#571 = VERTEX_POINT('',#572);
#572 = CARTESIAN_POINT('',(0.75,0.64,1.27));
#573 = LINE('',#574,#575);
#574 = CARTESIAN_POINT('',(0.75,0.64,1.27));
#575 = VECTOR('',#576,1.);
#576 = DIRECTION('',(0.,-1.,0.));
#577 = ORIENTED_EDGE('',*,*,#578,.F.);
#578 = EDGE_CURVE('',#579,#571,#581,.T.);
#579 = VERTEX_POINT('',#580);
#580 = CARTESIAN_POINT('',(0.77,0.64,1.27));
#581 = LINE('',#582,#583);
#582 = CARTESIAN_POINT('',(1.27,0.64,1.27));
#583 = VECTOR('',#584,1.);
#584 = DIRECTION('',(-1.,0.,0.));
#585 = ORIENTED_EDGE('',*,*,#586,.F.);
#586 = EDGE_CURVE('',#157,#579,#587,.T.);
#587 = LINE('',#588,#589);
#588 = CARTESIAN_POINT('',(0.77,2.64,1.27));
#589 = VECTOR('',#590,1.);
#590 = DIRECTION('',(0.,-1.,0.));
#591 = ORIENTED_EDGE('',*,*,#156,.F.);
#592 = ORIENTED_EDGE('',*,*,#482,.F.);
#593 = PLANE('',#594);
#594 = AXIS2_PLACEMENT_3D('',#595,#596,#597);
#595 = CARTESIAN_POINT('',(3.21493153849E-16,1.384247104247,1.27));
#596 = DIRECTION('',(0.,0.,1.));
#597 = DIRECTION('',(1.,0.,0.));
#598 = ADVANCED_FACE('',(#599),#617,.T.);
#599 = FACE_BOUND('',#600,.T.);
#600 = EDGE_LOOP('',(#601,#602,#603,#611));
#601 = ORIENTED_EDGE('',*,*,#532,.F.);
#602 = ORIENTED_EDGE('',*,*,#172,.T.);
#603 = ORIENTED_EDGE('',*,*,#604,.T.);
#604 = EDGE_CURVE('',#165,#605,#607,.T.);
#605 = VERTEX_POINT('',#606);
#606 = CARTESIAN_POINT('',(1.27,2.39,0.77));
#607 = LINE('',#608,#609);
#608 = CARTESIAN_POINT('',(1.36,2.3,0.68));
#609 = VECTOR('',#610,1.);
#610 = DIRECTION('',(0.57735026919,-0.57735026919,-0.57735026919));
#611 = ORIENTED_EDGE('',*,*,#612,.F.);
#612 = EDGE_CURVE('',#525,#605,#613,.T.);
#613 = LINE('',#614,#615);
#614 = CARTESIAN_POINT('',(1.27,2.39,-0.77));
#615 = VECTOR('',#616,1.);
#616 = DIRECTION('',(0.,0.,1.));
#617 = PLANE('',#618);
#618 = AXIS2_PLACEMENT_3D('',#619,#620,#621);
#619 = CARTESIAN_POINT('',(1.145,2.515,-0.77));
#620 = DIRECTION('',(0.707106781187,0.707106781187,0.));
#621 = DIRECTION('',(0.,0.,1.));
#622 = ADVANCED_FACE('',(#623),#650,.T.);
#623 = FACE_BOUND('',#624,.F.);
#624 = EDGE_LOOP('',(#625,#626,#627,#635,#643,#649));
#625 = ORIENTED_EDGE('',*,*,#164,.F.);
#626 = ORIENTED_EDGE('',*,*,#604,.T.);
#627 = ORIENTED_EDGE('',*,*,#628,.T.);
#628 = EDGE_CURVE('',#605,#629,#631,.T.);
#629 = VERTEX_POINT('',#630);
#630 = CARTESIAN_POINT('',(1.27,0.89,0.77));
#631 = LINE('',#632,#633);
#632 = CARTESIAN_POINT('',(1.27,2.64,0.77));
#633 = VECTOR('',#634,1.);
#634 = DIRECTION('',(0.,-1.,0.));
#635 = ORIENTED_EDGE('',*,*,#636,.F.);
#636 = EDGE_CURVE('',#637,#629,#639,.T.);
#637 = VERTEX_POINT('',#638);
#638 = CARTESIAN_POINT('',(1.02,0.64,1.02));
#639 = LINE('',#640,#641);
#640 = CARTESIAN_POINT('',(1.693333333333,1.313333333333,0.346666666667)
  );
#641 = VECTOR('',#642,1.);
#642 = DIRECTION('',(0.57735026919,0.57735026919,-0.57735026919));
#643 = ORIENTED_EDGE('',*,*,#644,.T.);
#644 = EDGE_CURVE('',#637,#579,#645,.T.);
#645 = LINE('',#646,#647);
#646 = CARTESIAN_POINT('',(1.655,0.64,0.385));
#647 = VECTOR('',#648,1.);
#648 = DIRECTION('',(-0.707106781187,0.,0.707106781187));
#649 = ORIENTED_EDGE('',*,*,#586,.F.);
#650 = PLANE('',#651);
#651 = AXIS2_PLACEMENT_3D('',#652,#653,#654);
#652 = CARTESIAN_POINT('',(1.02,2.64,1.02));
#653 = DIRECTION('',(0.707106781187,0.,0.707106781187));
#654 = DIRECTION('',(0.,1.,0.));
#655 = ADVANCED_FACE('',(#656),#681,.F.);
#656 = FACE_BOUND('',#657,.F.);
#657 = EDGE_LOOP('',(#658,#659,#667,#675));
#658 = ORIENTED_EDGE('',*,*,#196,.F.);
#659 = ORIENTED_EDGE('',*,*,#660,.T.);
#660 = EDGE_CURVE('',#197,#661,#663,.T.);
#661 = VERTEX_POINT('',#662);
#662 = CARTESIAN_POINT('',(-0.32,0.64,-0.32));
#663 = LINE('',#664,#665);
#664 = CARTESIAN_POINT('',(-0.32,2.64,-0.32));
#665 = VECTOR('',#666,1.);
#666 = DIRECTION('',(0.,-1.,2.22044604925E-16));
#667 = ORIENTED_EDGE('',*,*,#668,.T.);
#668 = EDGE_CURVE('',#661,#669,#671,.T.);
#669 = VERTEX_POINT('',#670);
#670 = CARTESIAN_POINT('',(-0.32,0.64,0.32));
#671 = LINE('',#672,#673);
#672 = CARTESIAN_POINT('',(-0.32,0.64,-0.56));
#673 = VECTOR('',#674,1.);
#674 = DIRECTION('',(0.,0.,1.));
#675 = ORIENTED_EDGE('',*,*,#676,.F.);
#676 = EDGE_CURVE('',#199,#669,#677,.T.);
#677 = LINE('',#678,#679);
#678 = CARTESIAN_POINT('',(-0.32,2.64,0.32));
#679 = VECTOR('',#680,1.);
#680 = DIRECTION('',(0.,-1.,2.22044604925E-16));
#681 = PLANE('',#682);
#682 = AXIS2_PLACEMENT_3D('',#683,#684,#685);
#683 = CARTESIAN_POINT('',(-0.32,2.64,-0.32));
#684 = DIRECTION('',(-1.,0.,0.));
#685 = DIRECTION('',(0.,2.22044604925E-16,1.));
#686 = ADVANCED_FACE('',(#687),#705,.F.);
#687 = FACE_BOUND('',#688,.F.);
#688 = EDGE_LOOP('',(#689,#690,#691,#699));
#689 = ORIENTED_EDGE('',*,*,#222,.F.);
#690 = ORIENTED_EDGE('',*,*,#676,.T.);
#691 = ORIENTED_EDGE('',*,*,#692,.T.);
#692 = EDGE_CURVE('',#669,#693,#695,.T.);
#693 = VERTEX_POINT('',#694);
#694 = CARTESIAN_POINT('',(0.32,0.64,0.32));
#695 = LINE('',#696,#697);
#696 = CARTESIAN_POINT('',(0.215,0.64,0.32));
#697 = VECTOR('',#698,1.);
#698 = DIRECTION('',(1.,0.,0.));
#699 = ORIENTED_EDGE('',*,*,#700,.F.);
#700 = EDGE_CURVE('',#215,#693,#701,.T.);
#701 = LINE('',#702,#703);
#702 = CARTESIAN_POINT('',(0.32,2.64,0.32));
#703 = VECTOR('',#704,1.);
#704 = DIRECTION('',(0.,-1.,2.22044604925E-16));
#705 = PLANE('',#706);
#706 = AXIS2_PLACEMENT_3D('',#707,#708,#709);
#707 = CARTESIAN_POINT('',(-0.32,2.64,0.32));
#708 = DIRECTION('',(0.,2.22044604925E-16,1.));
#709 = DIRECTION('',(1.,0.,0.));
#710 = ADVANCED_FACE('',(#711),#729,.F.);
#711 = FACE_BOUND('',#712,.F.);
#712 = EDGE_LOOP('',(#713,#714,#715,#723));
#713 = ORIENTED_EDGE('',*,*,#214,.F.);
#714 = ORIENTED_EDGE('',*,*,#700,.T.);
#715 = ORIENTED_EDGE('',*,*,#716,.T.);
#716 = EDGE_CURVE('',#693,#717,#719,.T.);
#717 = VERTEX_POINT('',#718);
#718 = CARTESIAN_POINT('',(0.32,0.64,-0.32));
#719 = LINE('',#720,#721);
#720 = CARTESIAN_POINT('',(0.32,0.64,-0.24));
#721 = VECTOR('',#722,1.);
#722 = DIRECTION('',(0.,0.,-1.));
#723 = ORIENTED_EDGE('',*,*,#724,.F.);
#724 = EDGE_CURVE('',#207,#717,#725,.T.);
#725 = LINE('',#726,#727);
#726 = CARTESIAN_POINT('',(0.32,2.64,-0.32));
#727 = VECTOR('',#728,1.);
#728 = DIRECTION('',(0.,-1.,2.22044604925E-16));
#729 = PLANE('',#730);
#730 = AXIS2_PLACEMENT_3D('',#731,#732,#733);
#731 = CARTESIAN_POINT('',(0.32,2.64,0.32));
#732 = DIRECTION('',(1.,0.,0.));
#733 = DIRECTION('',(0.,-2.22044604925E-16,-1.));
#734 = ADVANCED_FACE('',(#735),#746,.F.);
#735 = FACE_BOUND('',#736,.F.);
#736 = EDGE_LOOP('',(#737,#738,#739,#745));
#737 = ORIENTED_EDGE('',*,*,#206,.F.);
#738 = ORIENTED_EDGE('',*,*,#724,.T.);
#739 = ORIENTED_EDGE('',*,*,#740,.T.);
#740 = EDGE_CURVE('',#717,#661,#741,.T.);
#741 = LINE('',#742,#743);
#742 = CARTESIAN_POINT('',(0.535,0.64,-0.32));
#743 = VECTOR('',#744,1.);
#744 = DIRECTION('',(-1.,0.,0.));
#745 = ORIENTED_EDGE('',*,*,#660,.F.);
#746 = PLANE('',#747);
#747 = AXIS2_PLACEMENT_3D('',#748,#749,#750);
#748 = CARTESIAN_POINT('',(0.32,2.64,-0.32));
#749 = DIRECTION('',(-0.,-2.22044604925E-16,-1.));
#750 = DIRECTION('',(-1.,0.,0.));
#751 = ADVANCED_FACE('',(#752),#770,.T.);
#752 = FACE_BOUND('',#753,.T.);
#753 = EDGE_LOOP('',(#754,#755,#763,#769));
#754 = ORIENTED_EDGE('',*,*,#268,.F.);
#755 = ORIENTED_EDGE('',*,*,#756,.T.);
#756 = EDGE_CURVE('',#269,#757,#759,.T.);
#757 = VERTEX_POINT('',#758);
#758 = CARTESIAN_POINT('',(-0.75,0.,-0.8));
#759 = LINE('',#760,#761);
#760 = CARTESIAN_POINT('',(-0.75,0.,-1.27));
#761 = VECTOR('',#762,1.);
#762 = DIRECTION('',(0.,0.,1.));
#763 = ORIENTED_EDGE('',*,*,#764,.F.);
#764 = EDGE_CURVE('',#342,#757,#765,.T.);
#765 = LINE('',#766,#767);
#766 = CARTESIAN_POINT('',(-0.75,-0.32,-0.8));
#767 = VECTOR('',#768,1.);
#768 = DIRECTION('',(-0.,-1.,-0.));
#769 = ORIENTED_EDGE('',*,*,#341,.F.);
#770 = PLANE('',#771);
#771 = AXIS2_PLACEMENT_3D('',#772,#773,#774);
#772 = CARTESIAN_POINT('',(-0.75,0.,-1.27));
#773 = DIRECTION('',(-1.,0.,0.));
#774 = DIRECTION('',(0.,1.,0.));
#775 = ADVANCED_FACE('',(#776),#794,.T.);
#776 = FACE_BOUND('',#777,.T.);
#777 = EDGE_LOOP('',(#778,#779,#787,#793));
#778 = ORIENTED_EDGE('',*,*,#276,.F.);
#779 = ORIENTED_EDGE('',*,*,#780,.T.);
#780 = EDGE_CURVE('',#277,#781,#783,.T.);
#781 = VERTEX_POINT('',#782);
#782 = CARTESIAN_POINT('',(0.75,0.,-0.8));
#783 = LINE('',#784,#785);
#784 = CARTESIAN_POINT('',(0.75,0.,-1.27));
#785 = VECTOR('',#786,1.);
#786 = DIRECTION('',(0.,0.,1.));
#787 = ORIENTED_EDGE('',*,*,#788,.F.);
#788 = EDGE_CURVE('',#757,#781,#789,.T.);
#789 = LINE('',#790,#791);
#790 = CARTESIAN_POINT('',(0.75,0.,-0.8));
#791 = VECTOR('',#792,1.);
#792 = DIRECTION('',(1.,0.,0.));
#793 = ORIENTED_EDGE('',*,*,#756,.F.);
#794 = PLANE('',#795);
#795 = AXIS2_PLACEMENT_3D('',#796,#797,#798);
#796 = CARTESIAN_POINT('',(0.75,0.,-1.27));
#797 = DIRECTION('',(0.,-1.,0.));
#798 = DIRECTION('',(-1.,0.,0.));
#799 = ADVANCED_FACE('',(#800),#818,.T.);
#800 = FACE_BOUND('',#801,.T.);
#801 = EDGE_LOOP('',(#802,#803,#811,#817));
#802 = ORIENTED_EDGE('',*,*,#284,.F.);
#803 = ORIENTED_EDGE('',*,*,#804,.T.);
#804 = EDGE_CURVE('',#285,#805,#807,.T.);
#805 = VERTEX_POINT('',#806);
#806 = CARTESIAN_POINT('',(0.75,0.64,-0.8));
#807 = LINE('',#808,#809);
#808 = CARTESIAN_POINT('',(0.75,0.64,-1.27));
#809 = VECTOR('',#810,1.);
#810 = DIRECTION('',(0.,0.,1.));
#811 = ORIENTED_EDGE('',*,*,#812,.F.);
#812 = EDGE_CURVE('',#781,#805,#813,.T.);
#813 = LINE('',#814,#815);
#814 = CARTESIAN_POINT('',(0.75,-0.64,-0.8));
#815 = VECTOR('',#816,1.);
#816 = DIRECTION('',(0.,1.,0.));
#817 = ORIENTED_EDGE('',*,*,#780,.F.);
#818 = PLANE('',#819);
#819 = AXIS2_PLACEMENT_3D('',#820,#821,#822);
#820 = CARTESIAN_POINT('',(0.75,0.64,-1.27));
#821 = DIRECTION('',(1.,0.,0.));
#822 = DIRECTION('',(0.,-1.,0.));
#823 = ADVANCED_FACE('',(#824),#851,.T.);
#824 = FACE_BOUND('',#825,.T.);
#825 = EDGE_LOOP('',(#826,#827,#833,#834,#835,#843,#849,#850));
#826 = ORIENTED_EDGE('',*,*,#508,.T.);
#827 = ORIENTED_EDGE('',*,*,#828,.T.);
#828 = EDGE_CURVE('',#509,#637,#829,.T.);
#829 = LINE('',#830,#831);
#830 = CARTESIAN_POINT('',(1.02,0.64,-0.77));
#831 = VECTOR('',#832,1.);
#832 = DIRECTION('',(0.,0.,1.));
#833 = ORIENTED_EDGE('',*,*,#644,.T.);
#834 = ORIENTED_EDGE('',*,*,#578,.T.);
#835 = ORIENTED_EDGE('',*,*,#836,.F.);
#836 = EDGE_CURVE('',#837,#571,#839,.T.);
#837 = VERTEX_POINT('',#838);
#838 = CARTESIAN_POINT('',(0.75,0.64,0.8));
#839 = LINE('',#840,#841);
#840 = CARTESIAN_POINT('',(0.75,0.64,-1.27));
#841 = VECTOR('',#842,1.);
#842 = DIRECTION('',(0.,0.,1.));
#843 = ORIENTED_EDGE('',*,*,#844,.F.);
#844 = EDGE_CURVE('',#805,#837,#845,.T.);
#845 = LINE('',#846,#847);
#846 = CARTESIAN_POINT('',(0.75,0.64,-1.27));
#847 = VECTOR('',#848,1.);
#848 = DIRECTION('',(0.,0.,1.));
#849 = ORIENTED_EDGE('',*,*,#804,.F.);
#850 = ORIENTED_EDGE('',*,*,#292,.F.);
#851 = PLANE('',#852);
#852 = AXIS2_PLACEMENT_3D('',#853,#854,#855);
#853 = CARTESIAN_POINT('',(1.27,0.64,-1.27));
#854 = DIRECTION('',(0.,-1.,0.));
#855 = DIRECTION('',(-1.,0.,0.));
#856 = ADVANCED_FACE('',(#857),#875,.T.);
#857 = FACE_BOUND('',#858,.T.);
#858 = EDGE_LOOP('',(#859,#860,#868,#874));
#859 = ORIENTED_EDGE('',*,*,#364,.F.);
#860 = ORIENTED_EDGE('',*,*,#861,.T.);
#861 = EDGE_CURVE('',#365,#862,#864,.T.);
#862 = VERTEX_POINT('',#863);
#863 = CARTESIAN_POINT('',(-1.02,0.64,0.77));
#864 = LINE('',#865,#866);
#865 = CARTESIAN_POINT('',(-1.02,0.64,-0.77));
#866 = VECTOR('',#867,1.);
#867 = DIRECTION('',(0.,0.,1.));
#868 = ORIENTED_EDGE('',*,*,#869,.T.);
#869 = EDGE_CURVE('',#862,#318,#870,.T.);
#870 = LINE('',#871,#872);
#871 = CARTESIAN_POINT('',(-1.02,0.64,0.77));
#872 = VECTOR('',#873,1.);
#873 = DIRECTION('',(-0.707106781187,0.707106781187,0.));
#874 = ORIENTED_EDGE('',*,*,#317,.F.);
#875 = PLANE('',#876);
#876 = AXIS2_PLACEMENT_3D('',#877,#878,#879);
#877 = CARTESIAN_POINT('',(-1.145,0.765,-0.77));
#878 = DIRECTION('',(-0.707106781187,-0.707106781187,0.));
#879 = DIRECTION('',(0.,0.,1.));
#880 = ADVANCED_FACE('',(#881),#891,.T.);
#881 = FACE_BOUND('',#882,.T.);
#882 = EDGE_LOOP('',(#883,#889,#890));
#883 = ORIENTED_EDGE('',*,*,#884,.T.);
#884 = EDGE_CURVE('',#465,#862,#885,.T.);
#885 = LINE('',#886,#887);
#886 = CARTESIAN_POINT('',(-1.093223304703,0.64,0.946776695297));
#887 = VECTOR('',#888,1.);
#888 = DIRECTION('',(0.382683432365,0.,-0.923879532511));
#889 = ORIENTED_EDGE('',*,*,#861,.F.);
#890 = ORIENTED_EDGE('',*,*,#373,.F.);
#891 = PLANE('',#892);
#892 = AXIS2_PLACEMENT_3D('',#893,#894,#895);
#893 = CARTESIAN_POINT('',(-0.75,0.64,-1.27));
#894 = DIRECTION('',(0.,-1.,0.));
#895 = DIRECTION('',(-1.,0.,0.));
#896 = ADVANCED_FACE('',(#897),#902,.F.);
#897 = FACE_BOUND('',#898,.F.);
#898 = EDGE_LOOP('',(#899,#900,#901));
#899 = ORIENTED_EDGE('',*,*,#869,.T.);
#900 = ORIENTED_EDGE('',*,*,#464,.T.);
#901 = ORIENTED_EDGE('',*,*,#884,.T.);
#902 = B_SPLINE_SURFACE_WITH_KNOTS('',8,8,(
    (#903,#904,#905,#906,#907,#908,#909,#910,#911)
    ,(#912,#913,#914,#915,#916,#917,#918,#919,#920)
    ,(#921,#922,#923,#924,#925,#926,#927,#928,#929)
    ,(#930,#931,#932,#933,#934,#935,#936,#937,#938)
    ,(#939,#940,#941,#942,#943,#944,#945,#946,#947)
    ,(#948,#949,#950,#951,#952,#953,#954,#955,#956)
    ,(#957,#958,#959,#960,#961,#962,#963,#964,#965)
    ,(#966,#967,#968,#969,#970,#971,#972,#973,#974)
    ,(#975,#976,#977,#978,#979,#980,#981,#982,#983
  )),.UNSPECIFIED.,.F.,.F.,.F.,(9,9),(9,9),(-0.245750911579,
    0.132502053703),(-8.530067295391E-02,9.431352701606E-02),
  .PIECEWISE_BEZIER_KNOTS.);
#903 = CARTESIAN_POINT('',(-1.371481891362,0.811958680999,0.759610136844
    ));
#904 = CARTESIAN_POINT('',(-1.348146172663,0.839382185709,0.764632206684
    ));
#905 = CARTESIAN_POINT('',(-1.325560306304,0.865020263916,0.767866000681
    ));
#906 = CARTESIAN_POINT('',(-1.303382619489,0.889504689714,0.769980654502
    ));
#907 = CARTESIAN_POINT('',(-1.282871146315,0.910631755776,0.768672159403
    ));
#908 = CARTESIAN_POINT('',(-1.259966067025,0.936592270544,0.772239742278
    ));
#909 = CARTESIAN_POINT('',(-1.237960087946,0.960954865081,0.774190834017
    ));
#910 = CARTESIAN_POINT('',(-1.215359267013,0.986530013965,0.777354232256
    ));
#911 = CARTESIAN_POINT('',(-1.192820040283,1.011982105283,0.78039449408)
  );
#912 = CARTESIAN_POINT('',(-1.34155578295,0.776634853262,0.771702033619)
  );
#913 = CARTESIAN_POINT('',(-1.319546450006,0.800861234477,0.773528068561
    ));
#914 = CARTESIAN_POINT('',(-1.298366879313,0.823140481479,0.773398960217
    ));
#915 = CARTESIAN_POINT('',(-1.277351728318,0.84460947198,0.772520043304)
  );
#916 = CARTESIAN_POINT('',(-1.258964621511,0.860946261755,0.766419875125
    ));
#917 = CARTESIAN_POINT('',(-1.237335865434,0.883710649521,0.766780735312
    ));
#918 = CARTESIAN_POINT('',(-1.216859920691,0.90441850321,0.765093538315)
  );
#919 = CARTESIAN_POINT('',(-1.195741518936,0.926431662631,0.76469514925)
  );
#920 = CARTESIAN_POINT('',(-1.174729246354,0.94821421405,0.764069944745)
  );
#921 = CARTESIAN_POINT('',(-1.310289742139,0.74456349687,0.787049279486)
  );
#922 = CARTESIAN_POINT('',(-1.289694957502,0.765392278886,0.785470124106
    ));
#923 = CARTESIAN_POINT('',(-1.26967577379,0.785038334824,0.782742466754)
  );
#924 = CARTESIAN_POINT('',(-1.248556610756,0.806045887308,0.781351375446
    ));
#925 = CARTESIAN_POINT('',(-1.232973188366,0.815787335691,0.768808688968
    ));
#926 = CARTESIAN_POINT('',(-1.213452823807,0.834571553766,0.764954547705
    ));
#927 = CARTESIAN_POINT('',(-1.193613832055,0.852782446132,0.760924883204
    ));
#928 = CARTESIAN_POINT('',(-1.174085732299,0.871231215233,0.756928059957
    ));
#929 = CARTESIAN_POINT('',(-1.154638878979,0.889251671051,0.752545326323
    ));
#930 = CARTESIAN_POINT('',(-1.276160614905,0.719342614976,0.809224148158
    ));
#931 = CARTESIAN_POINT('',(-1.256211810634,0.738602093128,0.806116393043
    ));
#932 = CARTESIAN_POINT('',(-1.23850816111,0.752197136413,0.797149346712)
  );
#933 = CARTESIAN_POINT('',(-1.224123327195,0.759821757579,0.782292956435
    ));
#934 = CARTESIAN_POINT('',(-1.20133430445,0.783392118163,0.783840508369)
  );
#935 = CARTESIAN_POINT('',(-1.188536050592,0.786422493514,0.764423323399
    ));
#936 = CARTESIAN_POINT('',(-1.168144665986,0.807122451188,0.7626135478)
  );
#937 = CARTESIAN_POINT('',(-1.150938809415,0.819592906951,0.752725393949
    ));
#938 = CARTESIAN_POINT('',(-1.132801791355,0.834475942895,0.745205659888
    ));
#939 = CARTESIAN_POINT('',(-1.245247817351,0.686630518427,0.823950965917
    ));
#940 = CARTESIAN_POINT('',(-1.228004013228,0.699532409137,0.814371852672
    ));
#941 = CARTESIAN_POINT('',(-1.209313077137,0.716025982784,0.808842294292
    ));
#942 = CARTESIAN_POINT('',(-1.186549033332,0.740429533191,0.810706297327
    ));
#943 = CARTESIAN_POINT('',(-1.180583422793,0.728209169799,0.775772327875
    ));
#944 = CARTESIAN_POINT('',(-1.155424890324,0.758884677998,0.784233297874
    ));
#945 = CARTESIAN_POINT('',(-1.143685109094,0.758318693213,0.761292944353
    ));
#946 = CARTESIAN_POINT('',(-1.124999999791,0.774662317232,0.755210070324
    ));
#947 = CARTESIAN_POINT('',(-1.108893832213,0.784669544081,0.742826177771
    ));
#948 = CARTESIAN_POINT('',(-1.205994215416,0.673336434863,0.858186428371
    ));
#949 = CARTESIAN_POINT('',(-1.188823961256,0.685856720552,0.84847620208)
  );
#950 = CARTESIAN_POINT('',(-1.172773106349,0.695753945228,0.835512306483
    ));
#951 = CARTESIAN_POINT('',(-1.165769402602,0.684798536727,0.802283522845
    ));
#952 = CARTESIAN_POINT('',(-1.140981386453,0.714460486805,0.809824482479
    ));
#953 = CARTESIAN_POINT('',(-1.13332349116,0.704898276679,0.777610180423)
  );
#954 = CARTESIAN_POINT('',(-1.112832629968,0.725408999845,0.775788301523
    ));
#955 = CARTESIAN_POINT('',(-1.099673133313,0.728288685614,0.756278253345
    ));
#956 = CARTESIAN_POINT('',(-1.084326127098,0.736467473563,0.742060219528
    ));
#957 = CARTESIAN_POINT('',(-1.172731545208,0.646278935757,0.878248206339
    ));
#958 = CARTESIAN_POINT('',(-1.157680420265,0.653781863451,0.863298111362
    ));
#959 = CARTESIAN_POINT('',(-1.144847040525,0.655930657874,0.843457714425
    ));
#960 = CARTESIAN_POINT('',(-1.126419856269,0.671460473806,0.836437135899
    ));
#961 = CARTESIAN_POINT('',(-1.115724979988,0.66864737086,0.811157708616)
  );
#962 = CARTESIAN_POINT('',(-1.098783684737,0.680541636061,0.800781616008
    ));
#963 = CARTESIAN_POINT('',(-1.086005908096,0.682562562072,0.780355102601
    ));
#964 = CARTESIAN_POINT('',(-1.070799419842,0.690430774304,0.765831935957
    ));
#965 = CARTESIAN_POINT('',(-1.0574199258,0.69388103176,0.746896072499));
#966 = CARTESIAN_POINT('',(-1.132090025184,0.636769851973,0.916290587258
    ));
#967 = CARTESIAN_POINT('',(-1.119256062816,0.638919557789,0.896079222359
    ));
#968 = CARTESIAN_POINT('',(-1.10424186322,0.646299323123,0.881008040684)
  );
#969 = CARTESIAN_POINT('',(-1.093237995858,0.644070313666,0.85650438096)
  );
#970 = CARTESIAN_POINT('',(-1.078667283932,0.650364639088,0.840308581261
    ));
#971 = CARTESIAN_POINT('',(-1.066563275162,0.65077708749,0.818390907435)
  );
#972 = CARTESIAN_POINT('',(-1.054139545841,0.651916833883,0.797127502243
    ));
#973 = CARTESIAN_POINT('',(-1.041632499875,0.653280241409,0.77610652288)
  );
#974 = CARTESIAN_POINT('',(-1.029657361121,0.65335321378,0.753796400318)
  );
#975 = CARTESIAN_POINT('',(-1.085803509853,0.640852259895,0.967744227552
    ));
#976 = CARTESIAN_POINT('',(-1.074507151798,0.639296172802,0.943816382108
    ));
#977 = CARTESIAN_POINT('',(-1.062676391506,0.639018376105,0.921136252359
    ));
#978 = CARTESIAN_POINT('',(-1.052666482183,0.634375606419,0.894132665195
    ));
#979 = CARTESIAN_POINT('',(-1.040647288068,0.634533231342,0.871891529161
    ));
#980 = CARTESIAN_POINT('',(-1.030258298913,0.630809253337,0.845795214455
    ));
#981 = CARTESIAN_POINT('',(-1.019789579689,0.62724620279,0.819855560136)
  );
#982 = CARTESIAN_POINT('',(-1.009254385859,0.62386114853,0.794092057615)
  );
#983 = CARTESIAN_POINT('',(-0.998984955873,0.619829589848,0.767683403307
    ));
#984 = ADVANCED_FACE('',(#985),#1003,.T.);
#985 = FACE_BOUND('',#986,.T.);
#986 = EDGE_LOOP('',(#987,#995,#1001,#1002));
#987 = ORIENTED_EDGE('',*,*,#988,.F.);
#988 = EDGE_CURVE('',#989,#491,#991,.T.);
#989 = VERTEX_POINT('',#990);
#990 = CARTESIAN_POINT('',(-0.75,0.64,0.8));
#991 = LINE('',#992,#993);
#992 = CARTESIAN_POINT('',(0.75,0.64,0.8));
#993 = VECTOR('',#994,1.);
#994 = DIRECTION('',(-1.,-0.,-0.));
#995 = ORIENTED_EDGE('',*,*,#996,.T.);
#996 = EDGE_CURVE('',#989,#547,#997,.T.);
#997 = LINE('',#998,#999);
#998 = CARTESIAN_POINT('',(-0.75,0.64,-1.27));
#999 = VECTOR('',#1000,1.);
#1000 = DIRECTION('',(0.,0.,1.));
#1001 = ORIENTED_EDGE('',*,*,#546,.T.);
#1002 = ORIENTED_EDGE('',*,*,#490,.F.);
#1003 = PLANE('',#1004);
#1004 = AXIS2_PLACEMENT_3D('',#1005,#1006,#1007);
#1005 = CARTESIAN_POINT('',(-0.75,0.64,-1.27));
#1006 = DIRECTION('',(0.,-1.,0.));
#1007 = DIRECTION('',(-1.,0.,0.));
#1008 = ADVANCED_FACE('',(#1009),#1020,.T.);
#1009 = FACE_BOUND('',#1010,.T.);
#1010 = EDGE_LOOP('',(#1011,#1012,#1013,#1014));
#1011 = ORIENTED_EDGE('',*,*,#524,.F.);
#1012 = ORIENTED_EDGE('',*,*,#612,.T.);
#1013 = ORIENTED_EDGE('',*,*,#628,.T.);
#1014 = ORIENTED_EDGE('',*,*,#1015,.F.);
#1015 = EDGE_CURVE('',#517,#629,#1016,.T.);
#1016 = LINE('',#1017,#1018);
#1017 = CARTESIAN_POINT('',(1.27,0.89,-0.77));
#1018 = VECTOR('',#1019,1.);
#1019 = DIRECTION('',(0.,0.,1.));
#1020 = PLANE('',#1021);
#1021 = AXIS2_PLACEMENT_3D('',#1022,#1023,#1024);
#1022 = CARTESIAN_POINT('',(1.27,2.64,-1.27));
#1023 = DIRECTION('',(1.,0.,0.));
#1024 = DIRECTION('',(0.,-1.,0.));
#1025 = ADVANCED_FACE('',(#1026),#1032,.T.);
#1026 = FACE_BOUND('',#1027,.F.);
#1027 = EDGE_LOOP('',(#1028,#1029,#1030,#1031));
#1028 = ORIENTED_EDGE('',*,*,#516,.F.);
#1029 = ORIENTED_EDGE('',*,*,#828,.T.);
#1030 = ORIENTED_EDGE('',*,*,#636,.T.);
#1031 = ORIENTED_EDGE('',*,*,#1015,.F.);
#1032 = PLANE('',#1033);
#1033 = AXIS2_PLACEMENT_3D('',#1034,#1035,#1036);
#1034 = CARTESIAN_POINT('',(1.145,0.765,-0.77));
#1035 = DIRECTION('',(0.707106781187,-0.707106781187,0.));
#1036 = DIRECTION('',(-0.,-0.,-1.));
#1037 = ADVANCED_FACE('',(#1038),#1056,.T.);
#1038 = FACE_BOUND('',#1039,.T.);
#1039 = EDGE_LOOP('',(#1040,#1048,#1054,#1055));
#1040 = ORIENTED_EDGE('',*,*,#1041,.F.);
#1041 = EDGE_CURVE('',#1042,#989,#1044,.T.);
#1042 = VERTEX_POINT('',#1043);
#1043 = CARTESIAN_POINT('',(-0.75,0.,0.8));
#1044 = LINE('',#1045,#1046);
#1045 = CARTESIAN_POINT('',(-0.75,0.32,0.8));
#1046 = VECTOR('',#1047,1.);
#1047 = DIRECTION('',(0.,1.,0.));
#1048 = ORIENTED_EDGE('',*,*,#1049,.T.);
#1049 = EDGE_CURVE('',#1042,#555,#1050,.T.);
#1050 = LINE('',#1051,#1052);
#1051 = CARTESIAN_POINT('',(-0.75,0.,-1.27));
#1052 = VECTOR('',#1053,1.);
#1053 = DIRECTION('',(0.,0.,1.));
#1054 = ORIENTED_EDGE('',*,*,#554,.T.);
#1055 = ORIENTED_EDGE('',*,*,#996,.F.);
#1056 = PLANE('',#1057);
#1057 = AXIS2_PLACEMENT_3D('',#1058,#1059,#1060);
#1058 = CARTESIAN_POINT('',(-0.75,0.,-1.27));
#1059 = DIRECTION('',(-1.,0.,0.));
#1060 = DIRECTION('',(0.,1.,0.));
#1061 = ADVANCED_FACE('',(#1062),#1080,.T.);
#1062 = FACE_BOUND('',#1063,.T.);
#1063 = EDGE_LOOP('',(#1064,#1072,#1078,#1079));
#1064 = ORIENTED_EDGE('',*,*,#1065,.F.);
#1065 = EDGE_CURVE('',#1066,#1042,#1068,.T.);
#1066 = VERTEX_POINT('',#1067);
#1067 = CARTESIAN_POINT('',(0.75,0.,0.8));
#1068 = LINE('',#1069,#1070);
#1069 = CARTESIAN_POINT('',(0.75,0.,0.8));
#1070 = VECTOR('',#1071,1.);
#1071 = DIRECTION('',(-1.,0.,0.));
#1072 = ORIENTED_EDGE('',*,*,#1073,.T.);
#1073 = EDGE_CURVE('',#1066,#563,#1074,.T.);
#1074 = LINE('',#1075,#1076);
#1075 = CARTESIAN_POINT('',(0.75,0.,-1.27));
#1076 = VECTOR('',#1077,1.);
#1077 = DIRECTION('',(0.,0.,1.));
#1078 = ORIENTED_EDGE('',*,*,#562,.T.);
#1079 = ORIENTED_EDGE('',*,*,#1049,.F.);
#1080 = PLANE('',#1081);
#1081 = AXIS2_PLACEMENT_3D('',#1082,#1083,#1084);
#1082 = CARTESIAN_POINT('',(0.75,0.,-1.27));
#1083 = DIRECTION('',(0.,-1.,0.));
#1084 = DIRECTION('',(-1.,0.,0.));
#1085 = ADVANCED_FACE('',(#1086),#1097,.T.);
#1086 = FACE_BOUND('',#1087,.T.);
#1087 = EDGE_LOOP('',(#1088,#1094,#1095,#1096));
#1088 = ORIENTED_EDGE('',*,*,#1089,.F.);
#1089 = EDGE_CURVE('',#837,#1066,#1090,.T.);
#1090 = LINE('',#1091,#1092);
#1091 = CARTESIAN_POINT('',(0.75,0.64,0.8));
#1092 = VECTOR('',#1093,1.);
#1093 = DIRECTION('',(0.,-1.,0.));
#1094 = ORIENTED_EDGE('',*,*,#836,.T.);
#1095 = ORIENTED_EDGE('',*,*,#570,.T.);
#1096 = ORIENTED_EDGE('',*,*,#1073,.F.);
#1097 = PLANE('',#1098);
#1098 = AXIS2_PLACEMENT_3D('',#1099,#1100,#1101);
#1099 = CARTESIAN_POINT('',(0.75,0.64,-1.27));
#1100 = DIRECTION('',(1.,0.,0.));
#1101 = DIRECTION('',(0.,-1.,0.));
#1102 = ADVANCED_FACE('',(#1103,#1124),#1130,.F.);
#1103 = FACE_BOUND('',#1104,.F.);
#1104 = EDGE_LOOP('',(#1105,#1106,#1112,#1118));
#1105 = ORIENTED_EDGE('',*,*,#844,.F.);
#1106 = ORIENTED_EDGE('',*,*,#1107,.T.);
#1107 = EDGE_CURVE('',#805,#342,#1108,.T.);
#1108 = LINE('',#1109,#1110);
#1109 = CARTESIAN_POINT('',(0.75,0.64,-0.8));
#1110 = VECTOR('',#1111,1.);
#1111 = DIRECTION('',(-1.,-0.,-0.));
#1112 = ORIENTED_EDGE('',*,*,#1113,.T.);
#1113 = EDGE_CURVE('',#342,#989,#1114,.T.);
#1114 = LINE('',#1115,#1116);
#1115 = CARTESIAN_POINT('',(-0.75,0.64,-1.27));
#1116 = VECTOR('',#1117,1.);
#1117 = DIRECTION('',(0.,0.,1.));
#1118 = ORIENTED_EDGE('',*,*,#1119,.F.);
#1119 = EDGE_CURVE('',#837,#989,#1120,.T.);
#1120 = LINE('',#1121,#1122);
#1121 = CARTESIAN_POINT('',(0.75,0.64,0.8));
#1122 = VECTOR('',#1123,1.);
#1123 = DIRECTION('',(-1.,-0.,-0.));
#1124 = FACE_BOUND('',#1125,.F.);
#1125 = EDGE_LOOP('',(#1126,#1127,#1128,#1129));
#1126 = ORIENTED_EDGE('',*,*,#668,.F.);
#1127 = ORIENTED_EDGE('',*,*,#740,.F.);
#1128 = ORIENTED_EDGE('',*,*,#716,.F.);
#1129 = ORIENTED_EDGE('',*,*,#692,.F.);
#1130 = PLANE('',#1131);
#1131 = AXIS2_PLACEMENT_3D('',#1132,#1133,#1134);
#1132 = CARTESIAN_POINT('',(0.75,0.64,-0.8));
#1133 = DIRECTION('',(0.,1.,0.));
#1134 = DIRECTION('',(0.,0.,1.));
#1135 = ADVANCED_FACE('',(#1136),#1142,.F.);
#1136 = FACE_BOUND('',#1137,.F.);
#1137 = EDGE_LOOP('',(#1138,#1139,#1140,#1141));
#1138 = ORIENTED_EDGE('',*,*,#812,.F.);
#1139 = ORIENTED_EDGE('',*,*,#788,.F.);
#1140 = ORIENTED_EDGE('',*,*,#764,.F.);
#1141 = ORIENTED_EDGE('',*,*,#1107,.F.);
#1142 = PLANE('',#1143);
#1143 = AXIS2_PLACEMENT_3D('',#1144,#1145,#1146);
#1144 = CARTESIAN_POINT('',(0.75,-0.64,-0.8));
#1145 = DIRECTION('',(0.,0.,-1.));
#1146 = DIRECTION('',(0.,1.,0.));
#1147 = ADVANCED_FACE('',(#1148),#1154,.F.);
#1148 = FACE_BOUND('',#1149,.F.);
#1149 = EDGE_LOOP('',(#1150,#1151,#1152,#1153));
#1150 = ORIENTED_EDGE('',*,*,#1089,.F.);
#1151 = ORIENTED_EDGE('',*,*,#1119,.T.);
#1152 = ORIENTED_EDGE('',*,*,#1041,.F.);
#1153 = ORIENTED_EDGE('',*,*,#1065,.F.);
#1154 = PLANE('',#1155);
#1155 = AXIS2_PLACEMENT_3D('',#1156,#1157,#1158);
#1156 = CARTESIAN_POINT('',(0.75,0.64,0.8));
#1157 = DIRECTION('',(0.,0.,1.));
#1158 = DIRECTION('',(0.,-1.,0.));
#1159 = ( GEOMETRIC_REPRESENTATION_CONTEXT(3) 
GLOBAL_UNCERTAINTY_ASSIGNED_CONTEXT((#1163)) 
GLOBAL_UNIT_ASSIGNED_CONTEXT((#1160,#1161,#1162)) REPRESENTATION_CONTEXT
('Context #1','3D Context with UNIT and UNCERTAINTY') );
#1160 = ( LENGTH_UNIT() NAMED_UNIT(*) SI_UNIT(.MILLI.,.METRE.) );
#1161 = ( NAMED_UNIT(*) PLANE_ANGLE_UNIT() SI_UNIT($,.RADIAN.) );
#1162 = ( NAMED_UNIT(*) SI_UNIT($,.STERADIAN.) SOLID_ANGLE_UNIT() );
#1163 = UNCERTAINTY_MEASURE_WITH_UNIT(LENGTH_MEASURE(5.E-07),#1160,
  'distance_accuracy_value','confusion accuracy');
#1164 = CONTEXT_DEPENDENT_SHAPE_REPRESENTATION(#1165,#1167);
#1165 = ( REPRESENTATION_RELATIONSHIP('','',#67,#36) 
REPRESENTATION_RELATIONSHIP_WITH_TRANSFORMATION(#1166) 
SHAPE_REPRESENTATION_RELATIONSHIP() );
#1166 = ITEM_DEFINED_TRANSFORMATION('','',#11,#37);
#1167 = PRODUCT_DEFINITION_SHAPE('Placement','Placement of an item',
  #1168);
#1168 = NEXT_ASSEMBLY_USAGE_OCCURRENCE('3439','0','',#31,#62,$);
#1169 = PRODUCT_RELATED_PRODUCT_CATEGORY('part',$,(#64));
#1170 = CONTEXT_DEPENDENT_SHAPE_REPRESENTATION(#1171,#1173);
#1171 = ( REPRESENTATION_RELATIONSHIP('','',#67,#36) 
REPRESENTATION_RELATIONSHIP_WITH_TRANSFORMATION(#1172) 
SHAPE_REPRESENTATION_RELATIONSHIP() );
#1172 = ITEM_DEFINED_TRANSFORMATION('','',#11,#41);
#1173 = PRODUCT_DEFINITION_SHAPE('Placement','Placement of an item',
  #1174);
#1174 = NEXT_ASSEMBLY_USAGE_OCCURRENCE('3440','1','',#31,#62,$);
#1175 = CONTEXT_DEPENDENT_SHAPE_REPRESENTATION(#1176,#1178);
#1176 = ( REPRESENTATION_RELATIONSHIP('','',#67,#36) 
REPRESENTATION_RELATIONSHIP_WITH_TRANSFORMATION(#1177) 
SHAPE_REPRESENTATION_RELATIONSHIP() );
#1177 = ITEM_DEFINED_TRANSFORMATION('','',#11,#45);
#1178 = PRODUCT_DEFINITION_SHAPE('Placement','Placement of an item',
  #1179);
#1179 = NEXT_ASSEMBLY_USAGE_OCCURRENCE('3441','2','',#31,#62,$);
#1180 = SHAPE_DEFINITION_REPRESENTATION(#1181,#1187);
#1181 = PRODUCT_DEFINITION_SHAPE('','',#1182);
#1182 = PRODUCT_DEFINITION('design','',#1183,#1186);
#1183 = PRODUCT_DEFINITION_FORMATION('','',#1184);
#1184 = PRODUCT('Array001','Array001','',(#1185));
#1185 = PRODUCT_CONTEXT('',#2,'mechanical');
#1186 = PRODUCT_DEFINITION_CONTEXT('part definition',#2,'design');
#1187 = SHAPE_REPRESENTATION('',(#11,#1188,#1192,#1196),#1200);
#1188 = AXIS2_PLACEMENT_3D('',#1189,#1190,#1191);
#1189 = CARTESIAN_POINT('',(-2.54,0.,0.));
#1190 = DIRECTION('',(0.,0.,1.));
#1191 = DIRECTION('',(1.,0.,0.));
#1192 = AXIS2_PLACEMENT_3D('',#1193,#1194,#1195);
#1193 = CARTESIAN_POINT('',(0.,0.,0.));
#1194 = DIRECTION('',(0.,0.,1.));
#1195 = DIRECTION('',(1.,0.,0.));
#1196 = AXIS2_PLACEMENT_3D('',#1197,#1198,#1199);
#1197 = CARTESIAN_POINT('',(2.54,0.,0.));
#1198 = DIRECTION('',(0.,0.,1.));
#1199 = DIRECTION('',(1.,0.,0.));
#1200 = ( GEOMETRIC_REPRESENTATION_CONTEXT(3) 
GLOBAL_UNCERTAINTY_ASSIGNED_CONTEXT((#1204)) 
GLOBAL_UNIT_ASSIGNED_CONTEXT((#1201,#1202,#1203)) REPRESENTATION_CONTEXT
('Context #1','3D Context with UNIT and UNCERTAINTY') );
#1201 = ( LENGTH_UNIT() NAMED_UNIT(*) SI_UNIT(.MILLI.,.METRE.) );
#1202 = ( NAMED_UNIT(*) PLANE_ANGLE_UNIT() SI_UNIT($,.RADIAN.) );
#1203 = ( NAMED_UNIT(*) SI_UNIT($,.STERADIAN.) SOLID_ANGLE_UNIT() );
#1204 = UNCERTAINTY_MEASURE_WITH_UNIT(LENGTH_MEASURE(1.E-07),#1201,
  'distance_accuracy_value','confusion accuracy');
#1205 = CONTEXT_DEPENDENT_SHAPE_REPRESENTATION(#1206,#1208);
#1206 = ( REPRESENTATION_RELATIONSHIP('','',#1187,#10) 
REPRESENTATION_RELATIONSHIP_WITH_TRANSFORMATION(#1207) 
SHAPE_REPRESENTATION_RELATIONSHIP() );
#1207 = ITEM_DEFINED_TRANSFORMATION('','',#11,#19);
#1208 = PRODUCT_DEFINITION_SHAPE('Placement','Placement of an item',
  #1209);
#1209 = NEXT_ASSEMBLY_USAGE_OCCURRENCE('3446','Array001','',#5,#1182,$);
#1210 = PRODUCT_RELATED_PRODUCT_CATEGORY('part',$,(#1184));
#1211 = SHAPE_DEFINITION_REPRESENTATION(#1212,#1218);
#1212 = PRODUCT_DEFINITION_SHAPE('','',#1213);
#1213 = PRODUCT_DEFINITION('design','',#1214,#1217);
#1214 = PRODUCT_DEFINITION_FORMATION('','',#1215);
#1215 = PRODUCT('Body001','Body001','',(#1216));
#1216 = PRODUCT_CONTEXT('',#2,'mechanical');
#1217 = PRODUCT_DEFINITION_CONTEXT('part definition',#2,'design');
#1218 = ADVANCED_BREP_SHAPE_REPRESENTATION('',(#11,#1219),#1561);
#1219 = MANIFOLD_SOLID_BREP('',#1220);
#1220 = CLOSED_SHELL('',(#1221,#1261,#1292,#1323,#1354,#1385,#1407,#1431
    ,#1455,#1479,#1496,#1520,#1537,#1549));
#1221 = ADVANCED_FACE('',(#1222),#1256,.F.);
#1222 = FACE_BOUND('',#1223,.F.);
#1223 = EDGE_LOOP('',(#1224,#1234,#1242,#1250));
#1224 = ORIENTED_EDGE('',*,*,#1225,.T.);
#1225 = EDGE_CURVE('',#1226,#1228,#1230,.T.);
#1226 = VERTEX_POINT('',#1227);
#1227 = CARTESIAN_POINT('',(0.32,8.49,-0.32));
#1228 = VERTEX_POINT('',#1229);
#1229 = CARTESIAN_POINT('',(0.32,-2.75,-0.32));
#1230 = LINE('',#1231,#1232);
#1231 = CARTESIAN_POINT('',(0.32,8.74,-0.32));
#1232 = VECTOR('',#1233,1.);
#1233 = DIRECTION('',(0.,-1.,4.4E-16));
#1234 = ORIENTED_EDGE('',*,*,#1235,.T.);
#1235 = EDGE_CURVE('',#1228,#1236,#1238,.T.);
#1236 = VERTEX_POINT('',#1237);
#1237 = CARTESIAN_POINT('',(0.32,-2.75,0.32));
#1238 = LINE('',#1239,#1240);
#1239 = CARTESIAN_POINT('',(0.32,-2.75,-0.32));
#1240 = VECTOR('',#1241,1.);
#1241 = DIRECTION('',(0.,4.4E-16,1.));
#1242 = ORIENTED_EDGE('',*,*,#1243,.F.);
#1243 = EDGE_CURVE('',#1244,#1236,#1246,.T.);
#1244 = VERTEX_POINT('',#1245);
#1245 = CARTESIAN_POINT('',(0.32,8.49,0.32));
#1246 = LINE('',#1247,#1248);
#1247 = CARTESIAN_POINT('',(0.32,8.74,0.32));
#1248 = VECTOR('',#1249,1.);
#1249 = DIRECTION('',(0.,-1.,4.4E-16));
#1250 = ORIENTED_EDGE('',*,*,#1251,.F.);
#1251 = EDGE_CURVE('',#1226,#1244,#1252,.T.);
#1252 = LINE('',#1253,#1254);
#1253 = CARTESIAN_POINT('',(0.32,8.49,-0.32));
#1254 = VECTOR('',#1255,1.);
#1255 = DIRECTION('',(0.,4.4E-16,1.));
#1256 = PLANE('',#1257);
#1257 = AXIS2_PLACEMENT_3D('',#1258,#1259,#1260);
#1258 = CARTESIAN_POINT('',(0.32,8.74,-0.32));
#1259 = DIRECTION('',(-1.,0.,0.));
#1260 = DIRECTION('',(0.,4.4E-16,1.));
#1261 = ADVANCED_FACE('',(#1262),#1287,.F.);
#1262 = FACE_BOUND('',#1263,.F.);
#1263 = EDGE_LOOP('',(#1264,#1274,#1280,#1281));
#1264 = ORIENTED_EDGE('',*,*,#1265,.T.);
#1265 = EDGE_CURVE('',#1266,#1268,#1270,.T.);
#1266 = VERTEX_POINT('',#1267);
#1267 = CARTESIAN_POINT('',(-0.32,8.49,-0.32));
#1268 = VERTEX_POINT('',#1269);
#1269 = CARTESIAN_POINT('',(-0.32,-2.75,-0.32));
#1270 = LINE('',#1271,#1272);
#1271 = CARTESIAN_POINT('',(-0.32,8.74,-0.32));
#1272 = VECTOR('',#1273,1.);
#1273 = DIRECTION('',(0.,-1.,4.4E-16));
#1274 = ORIENTED_EDGE('',*,*,#1275,.T.);
#1275 = EDGE_CURVE('',#1268,#1228,#1276,.T.);
#1276 = LINE('',#1277,#1278);
#1277 = CARTESIAN_POINT('',(-0.32,-2.75,-0.32));
#1278 = VECTOR('',#1279,1.);
#1279 = DIRECTION('',(1.,0.,0.));
#1280 = ORIENTED_EDGE('',*,*,#1225,.F.);
#1281 = ORIENTED_EDGE('',*,*,#1282,.F.);
#1282 = EDGE_CURVE('',#1266,#1226,#1283,.T.);
#1283 = LINE('',#1284,#1285);
#1284 = CARTESIAN_POINT('',(-0.32,8.49,-0.32));
#1285 = VECTOR('',#1286,1.);
#1286 = DIRECTION('',(1.,0.,0.));
#1287 = PLANE('',#1288);
#1288 = AXIS2_PLACEMENT_3D('',#1289,#1290,#1291);
#1289 = CARTESIAN_POINT('',(-0.32,8.74,-0.32));
#1290 = DIRECTION('',(0.,4.4E-16,1.));
#1291 = DIRECTION('',(1.,0.,0.));
#1292 = ADVANCED_FACE('',(#1293),#1318,.F.);
#1293 = FACE_BOUND('',#1294,.F.);
#1294 = EDGE_LOOP('',(#1295,#1303,#1304,#1312));
#1295 = ORIENTED_EDGE('',*,*,#1296,.F.);
#1296 = EDGE_CURVE('',#1226,#1297,#1299,.T.);
#1297 = VERTEX_POINT('',#1298);
#1298 = CARTESIAN_POINT('',(0.22,8.74,-0.22));
#1299 = LINE('',#1300,#1301);
#1300 = CARTESIAN_POINT('',(0.237272727273,8.696818181818,
    -0.237272727273));
#1301 = VECTOR('',#1302,1.);
#1302 = DIRECTION('',(-0.348155311911,0.870388279778,0.348155311911));
#1303 = ORIENTED_EDGE('',*,*,#1251,.T.);
#1304 = ORIENTED_EDGE('',*,*,#1305,.T.);
#1305 = EDGE_CURVE('',#1244,#1306,#1308,.T.);
#1306 = VERTEX_POINT('',#1307);
#1307 = CARTESIAN_POINT('',(0.22,8.74,0.22));
#1308 = LINE('',#1309,#1310);
#1309 = CARTESIAN_POINT('',(0.237272727273,8.696818181818,0.237272727273
    ));
#1310 = VECTOR('',#1311,1.);
#1311 = DIRECTION('',(-0.348155311911,0.870388279778,-0.348155311911));
#1312 = ORIENTED_EDGE('',*,*,#1313,.F.);
#1313 = EDGE_CURVE('',#1297,#1306,#1314,.T.);
#1314 = LINE('',#1315,#1316);
#1315 = CARTESIAN_POINT('',(0.22,8.74,-0.32));
#1316 = VECTOR('',#1317,1.);
#1317 = DIRECTION('',(0.,4.4E-16,1.));
#1318 = PLANE('',#1319);
#1319 = AXIS2_PLACEMENT_3D('',#1320,#1321,#1322);
#1320 = CARTESIAN_POINT('',(0.27,8.615,-0.32));
#1321 = DIRECTION('',(-0.928476690885,-0.371390676354,7.E-17));
#1322 = DIRECTION('',(-8.879973508631E-17,4.104801059655E-16,1.));
#1323 = ADVANCED_FACE('',(#1324),#1349,.T.);
#1324 = FACE_BOUND('',#1325,.T.);
#1325 = EDGE_LOOP('',(#1326,#1334,#1335,#1343));
#1326 = ORIENTED_EDGE('',*,*,#1327,.F.);
#1327 = EDGE_CURVE('',#1228,#1328,#1330,.T.);
#1328 = VERTEX_POINT('',#1329);
#1329 = CARTESIAN_POINT('',(0.22,-3.,-0.22));
#1330 = LINE('',#1331,#1332);
#1331 = CARTESIAN_POINT('',(0.237272727273,-2.956818181818,
    -0.237272727273));
#1332 = VECTOR('',#1333,1.);
#1333 = DIRECTION('',(-0.348155311911,-0.870388279778,0.348155311911));
#1334 = ORIENTED_EDGE('',*,*,#1235,.T.);
#1335 = ORIENTED_EDGE('',*,*,#1336,.T.);
#1336 = EDGE_CURVE('',#1236,#1337,#1339,.T.);
#1337 = VERTEX_POINT('',#1338);
#1338 = CARTESIAN_POINT('',(0.22,-3.,0.22));
#1339 = LINE('',#1340,#1341);
#1340 = CARTESIAN_POINT('',(0.237272727273,-2.956818181818,
    0.237272727273));
#1341 = VECTOR('',#1342,1.);
#1342 = DIRECTION('',(-0.348155311911,-0.870388279778,-0.348155311911));
#1343 = ORIENTED_EDGE('',*,*,#1344,.F.);
#1344 = EDGE_CURVE('',#1328,#1337,#1345,.T.);
#1345 = LINE('',#1346,#1347);
#1346 = CARTESIAN_POINT('',(0.22,-3.,-0.32));
#1347 = VECTOR('',#1348,1.);
#1348 = DIRECTION('',(0.,4.4E-16,1.));
#1349 = PLANE('',#1350);
#1350 = AXIS2_PLACEMENT_3D('',#1351,#1352,#1353);
#1351 = CARTESIAN_POINT('',(0.27,-2.875,-0.32));
#1352 = DIRECTION('',(0.928476690885,-0.371390676354,8.E-17));
#1353 = DIRECTION('',(7.813565783263E-17,4.107457368669E-16,1.));
#1354 = ADVANCED_FACE('',(#1355),#1380,.F.);
#1355 = FACE_BOUND('',#1356,.F.);
#1356 = EDGE_LOOP('',(#1357,#1358,#1366,#1374));
#1357 = ORIENTED_EDGE('',*,*,#1243,.T.);
#1358 = ORIENTED_EDGE('',*,*,#1359,.T.);
#1359 = EDGE_CURVE('',#1236,#1360,#1362,.T.);
#1360 = VERTEX_POINT('',#1361);
#1361 = CARTESIAN_POINT('',(-0.32,-2.75,0.32));
#1362 = LINE('',#1363,#1364);
#1363 = CARTESIAN_POINT('',(0.32,-2.75,0.32));
#1364 = VECTOR('',#1365,1.);
#1365 = DIRECTION('',(-1.,0.,0.));
#1366 = ORIENTED_EDGE('',*,*,#1367,.F.);
#1367 = EDGE_CURVE('',#1368,#1360,#1370,.T.);
#1368 = VERTEX_POINT('',#1369);
#1369 = CARTESIAN_POINT('',(-0.32,8.49,0.32));
#1370 = LINE('',#1371,#1372);
#1371 = CARTESIAN_POINT('',(-0.32,8.74,0.32));
#1372 = VECTOR('',#1373,1.);
#1373 = DIRECTION('',(0.,-1.,4.4E-16));
#1374 = ORIENTED_EDGE('',*,*,#1375,.F.);
#1375 = EDGE_CURVE('',#1244,#1368,#1376,.T.);
#1376 = LINE('',#1377,#1378);
#1377 = CARTESIAN_POINT('',(0.32,8.49,0.32));
#1378 = VECTOR('',#1379,1.);
#1379 = DIRECTION('',(-1.,0.,0.));
#1380 = PLANE('',#1381);
#1381 = AXIS2_PLACEMENT_3D('',#1382,#1383,#1384);
#1382 = CARTESIAN_POINT('',(0.32,8.74,0.32));
#1383 = DIRECTION('',(0.,-4.4E-16,-1.));
#1384 = DIRECTION('',(-1.,0.,0.));
#1385 = ADVANCED_FACE('',(#1386),#1402,.F.);
#1386 = FACE_BOUND('',#1387,.F.);
#1387 = EDGE_LOOP('',(#1388,#1389,#1395,#1396));
#1388 = ORIENTED_EDGE('',*,*,#1367,.T.);
#1389 = ORIENTED_EDGE('',*,*,#1390,.T.);
#1390 = EDGE_CURVE('',#1360,#1268,#1391,.T.);
#1391 = LINE('',#1392,#1393);
#1392 = CARTESIAN_POINT('',(-0.32,-2.75,0.32));
#1393 = VECTOR('',#1394,1.);
#1394 = DIRECTION('',(0.,-4.4E-16,-1.));
#1395 = ORIENTED_EDGE('',*,*,#1265,.F.);
#1396 = ORIENTED_EDGE('',*,*,#1397,.F.);
#1397 = EDGE_CURVE('',#1368,#1266,#1398,.T.);
#1398 = LINE('',#1399,#1400);
#1399 = CARTESIAN_POINT('',(-0.32,8.49,0.32));
#1400 = VECTOR('',#1401,1.);
#1401 = DIRECTION('',(0.,-4.4E-16,-1.));
#1402 = PLANE('',#1403);
#1403 = AXIS2_PLACEMENT_3D('',#1404,#1405,#1406);
#1404 = CARTESIAN_POINT('',(-0.32,8.74,0.32));
#1405 = DIRECTION('',(1.,0.,0.));
#1406 = DIRECTION('',(0.,-4.4E-16,-1.));
#1407 = ADVANCED_FACE('',(#1408),#1426,.F.);
#1408 = FACE_BOUND('',#1409,.F.);
#1409 = EDGE_LOOP('',(#1410,#1418,#1419,#1420));
#1410 = ORIENTED_EDGE('',*,*,#1411,.F.);
#1411 = EDGE_CURVE('',#1266,#1412,#1414,.T.);
#1412 = VERTEX_POINT('',#1413);
#1413 = CARTESIAN_POINT('',(-0.22,8.74,-0.22));
#1414 = LINE('',#1415,#1416);
#1415 = CARTESIAN_POINT('',(-0.237272727273,8.696818181818,
    -0.237272727273));
#1416 = VECTOR('',#1417,1.);
#1417 = DIRECTION('',(0.348155311911,0.870388279778,0.348155311911));
#1418 = ORIENTED_EDGE('',*,*,#1282,.T.);
#1419 = ORIENTED_EDGE('',*,*,#1296,.T.);
#1420 = ORIENTED_EDGE('',*,*,#1421,.F.);
#1421 = EDGE_CURVE('',#1412,#1297,#1422,.T.);
#1422 = LINE('',#1423,#1424);
#1423 = CARTESIAN_POINT('',(-0.32,8.74,-0.22));
#1424 = VECTOR('',#1425,1.);
#1425 = DIRECTION('',(1.,0.,0.));
#1426 = PLANE('',#1427);
#1427 = AXIS2_PLACEMENT_3D('',#1428,#1429,#1430);
#1428 = CARTESIAN_POINT('',(-0.32,8.615,-0.27));
#1429 = DIRECTION('',(0.,-0.371390676354,0.928476690885));
#1430 = DIRECTION('',(1.,0.,0.));
#1431 = ADVANCED_FACE('',(#1432),#1450,.T.);
#1432 = FACE_BOUND('',#1433,.T.);
#1433 = EDGE_LOOP('',(#1434,#1442,#1443,#1444));
#1434 = ORIENTED_EDGE('',*,*,#1435,.F.);
#1435 = EDGE_CURVE('',#1268,#1436,#1438,.T.);
#1436 = VERTEX_POINT('',#1437);
#1437 = CARTESIAN_POINT('',(-0.22,-3.,-0.22));
#1438 = LINE('',#1439,#1440);
#1439 = CARTESIAN_POINT('',(-0.237272727273,-2.956818181818,
    -0.237272727273));
#1440 = VECTOR('',#1441,1.);
#1441 = DIRECTION('',(0.348155311911,-0.870388279778,0.348155311911));
#1442 = ORIENTED_EDGE('',*,*,#1275,.T.);
#1443 = ORIENTED_EDGE('',*,*,#1327,.T.);
#1444 = ORIENTED_EDGE('',*,*,#1445,.F.);
#1445 = EDGE_CURVE('',#1436,#1328,#1446,.T.);
#1446 = LINE('',#1447,#1448);
#1447 = CARTESIAN_POINT('',(-0.32,-3.,-0.22));
#1448 = VECTOR('',#1449,1.);
#1449 = DIRECTION('',(1.,0.,0.));
#1450 = PLANE('',#1451);
#1451 = AXIS2_PLACEMENT_3D('',#1452,#1453,#1454);
#1452 = CARTESIAN_POINT('',(-0.32,-2.875,-0.27));
#1453 = DIRECTION('',(0.,-0.371390676354,-0.928476690885));
#1454 = DIRECTION('',(1.,0.,0.));
#1455 = ADVANCED_FACE('',(#1456),#1474,.T.);
#1456 = FACE_BOUND('',#1457,.T.);
#1457 = EDGE_LOOP('',(#1458,#1459,#1460,#1468));
#1458 = ORIENTED_EDGE('',*,*,#1313,.F.);
#1459 = ORIENTED_EDGE('',*,*,#1421,.F.);
#1460 = ORIENTED_EDGE('',*,*,#1461,.F.);
#1461 = EDGE_CURVE('',#1462,#1412,#1464,.T.);
#1462 = VERTEX_POINT('',#1463);
#1463 = CARTESIAN_POINT('',(-0.22,8.74,0.22));
#1464 = LINE('',#1465,#1466);
#1465 = CARTESIAN_POINT('',(-0.22,8.74,0.32));
#1466 = VECTOR('',#1467,1.);
#1467 = DIRECTION('',(0.,-4.4E-16,-1.));
#1468 = ORIENTED_EDGE('',*,*,#1469,.F.);
#1469 = EDGE_CURVE('',#1306,#1462,#1470,.T.);
#1470 = LINE('',#1471,#1472);
#1471 = CARTESIAN_POINT('',(0.32,8.74,0.22));
#1472 = VECTOR('',#1473,1.);
#1473 = DIRECTION('',(-1.,0.,0.));
#1474 = PLANE('',#1475);
#1475 = AXIS2_PLACEMENT_3D('',#1476,#1477,#1478);
#1476 = CARTESIAN_POINT('',(-1.E-16,8.74,-3.552713678801E-15));
#1477 = DIRECTION('',(0.,1.,0.));
#1478 = DIRECTION('',(0.,0.,1.));
#1479 = ADVANCED_FACE('',(#1480),#1491,.F.);
#1480 = FACE_BOUND('',#1481,.F.);
#1481 = EDGE_LOOP('',(#1482,#1483,#1484,#1490));
#1482 = ORIENTED_EDGE('',*,*,#1305,.F.);
#1483 = ORIENTED_EDGE('',*,*,#1375,.T.);
#1484 = ORIENTED_EDGE('',*,*,#1485,.T.);
#1485 = EDGE_CURVE('',#1368,#1462,#1486,.T.);
#1486 = LINE('',#1487,#1488);
#1487 = CARTESIAN_POINT('',(-0.237272727273,8.696818181818,
    0.237272727273));
#1488 = VECTOR('',#1489,1.);
#1489 = DIRECTION('',(0.348155311911,0.870388279778,-0.348155311911));
#1490 = ORIENTED_EDGE('',*,*,#1469,.F.);
#1491 = PLANE('',#1492);
#1492 = AXIS2_PLACEMENT_3D('',#1493,#1494,#1495);
#1493 = CARTESIAN_POINT('',(0.32,8.615,0.27));
#1494 = DIRECTION('',(0.,-0.371390676354,-0.928476690885));
#1495 = DIRECTION('',(-1.,0.,0.));
#1496 = ADVANCED_FACE('',(#1497),#1515,.F.);
#1497 = FACE_BOUND('',#1498,.F.);
#1498 = EDGE_LOOP('',(#1499,#1500,#1501,#1509));
#1499 = ORIENTED_EDGE('',*,*,#1344,.F.);
#1500 = ORIENTED_EDGE('',*,*,#1445,.F.);
#1501 = ORIENTED_EDGE('',*,*,#1502,.F.);
#1502 = EDGE_CURVE('',#1503,#1436,#1505,.T.);
#1503 = VERTEX_POINT('',#1504);
#1504 = CARTESIAN_POINT('',(-0.22,-3.,0.22));
#1505 = LINE('',#1506,#1507);
#1506 = CARTESIAN_POINT('',(-0.22,-3.,0.32));
#1507 = VECTOR('',#1508,1.);
#1508 = DIRECTION('',(0.,-4.4E-16,-1.));
#1509 = ORIENTED_EDGE('',*,*,#1510,.F.);
#1510 = EDGE_CURVE('',#1337,#1503,#1511,.T.);
#1511 = LINE('',#1512,#1513);
#1512 = CARTESIAN_POINT('',(0.32,-3.,0.22));
#1513 = VECTOR('',#1514,1.);
#1514 = DIRECTION('',(-1.,0.,0.));
#1515 = PLANE('',#1516);
#1516 = AXIS2_PLACEMENT_3D('',#1517,#1518,#1519);
#1517 = CARTESIAN_POINT('',(-1.E-16,-3.,4.440892098501E-16));
#1518 = DIRECTION('',(0.,1.,0.));
#1519 = DIRECTION('',(0.,0.,1.));
#1520 = ADVANCED_FACE('',(#1521),#1532,.T.);
#1521 = FACE_BOUND('',#1522,.T.);
#1522 = EDGE_LOOP('',(#1523,#1524,#1525,#1531));
#1523 = ORIENTED_EDGE('',*,*,#1336,.F.);
#1524 = ORIENTED_EDGE('',*,*,#1359,.T.);
#1525 = ORIENTED_EDGE('',*,*,#1526,.T.);
#1526 = EDGE_CURVE('',#1360,#1503,#1527,.T.);
#1527 = LINE('',#1528,#1529);
#1528 = CARTESIAN_POINT('',(-0.237272727273,-2.956818181818,
    0.237272727273));
#1529 = VECTOR('',#1530,1.);
#1530 = DIRECTION('',(0.348155311911,-0.870388279778,-0.348155311911));
#1531 = ORIENTED_EDGE('',*,*,#1510,.F.);
#1532 = PLANE('',#1533);
#1533 = AXIS2_PLACEMENT_3D('',#1534,#1535,#1536);
#1534 = CARTESIAN_POINT('',(0.32,-2.875,0.27));
#1535 = DIRECTION('',(0.,-0.371390676354,0.928476690885));
#1536 = DIRECTION('',(-1.,0.,0.));
#1537 = ADVANCED_FACE('',(#1538),#1544,.F.);
#1538 = FACE_BOUND('',#1539,.F.);
#1539 = EDGE_LOOP('',(#1540,#1541,#1542,#1543));
#1540 = ORIENTED_EDGE('',*,*,#1485,.F.);
#1541 = ORIENTED_EDGE('',*,*,#1397,.T.);
#1542 = ORIENTED_EDGE('',*,*,#1411,.T.);
#1543 = ORIENTED_EDGE('',*,*,#1461,.F.);
#1544 = PLANE('',#1545);
#1545 = AXIS2_PLACEMENT_3D('',#1546,#1547,#1548);
#1546 = CARTESIAN_POINT('',(-0.27,8.615,0.32));
#1547 = DIRECTION('',(0.928476690885,-0.371390676354,7.E-17));
#1548 = DIRECTION('',(-8.879973508631E-17,-4.104801059655E-16,-1.));
#1549 = ADVANCED_FACE('',(#1550),#1556,.T.);
#1550 = FACE_BOUND('',#1551,.T.);
#1551 = EDGE_LOOP('',(#1552,#1553,#1554,#1555));
#1552 = ORIENTED_EDGE('',*,*,#1526,.F.);
#1553 = ORIENTED_EDGE('',*,*,#1390,.T.);
#1554 = ORIENTED_EDGE('',*,*,#1435,.T.);
#1555 = ORIENTED_EDGE('',*,*,#1502,.F.);
#1556 = PLANE('',#1557);
#1557 = AXIS2_PLACEMENT_3D('',#1558,#1559,#1560);
#1558 = CARTESIAN_POINT('',(-0.27,-2.875,0.32));
#1559 = DIRECTION('',(-0.928476690885,-0.371390676354,8.E-17));
#1560 = DIRECTION('',(7.813565783263E-17,-4.107457368669E-16,-1.));
#1561 = ( GEOMETRIC_REPRESENTATION_CONTEXT(3) 
GLOBAL_UNCERTAINTY_ASSIGNED_CONTEXT((#1565)) 
GLOBAL_UNIT_ASSIGNED_CONTEXT((#1562,#1563,#1564)) REPRESENTATION_CONTEXT
('Context #1','3D Context with UNIT and UNCERTAINTY') );
#1562 = ( LENGTH_UNIT() NAMED_UNIT(*) SI_UNIT(.MILLI.,.METRE.) );
#1563 = ( NAMED_UNIT(*) PLANE_ANGLE_UNIT() SI_UNIT($,.RADIAN.) );
#1564 = ( NAMED_UNIT(*) SI_UNIT($,.STERADIAN.) SOLID_ANGLE_UNIT() );
#1565 = UNCERTAINTY_MEASURE_WITH_UNIT(LENGTH_MEASURE(1.E-07),#1562,
  'distance_accuracy_value','confusion accuracy');
#1566 = CONTEXT_DEPENDENT_SHAPE_REPRESENTATION(#1567,#1569);
#1567 = ( REPRESENTATION_RELATIONSHIP('','',#1218,#1187) 
REPRESENTATION_RELATIONSHIP_WITH_TRANSFORMATION(#1568) 
SHAPE_REPRESENTATION_RELATIONSHIP() );
#1568 = ITEM_DEFINED_TRANSFORMATION('','',#11,#1188);
#1569 = PRODUCT_DEFINITION_SHAPE('Placement','Placement of an item',
  #1570);
#1570 = NEXT_ASSEMBLY_USAGE_OCCURRENCE('3443','0','',#1182,#1213,$);
#1571 = PRODUCT_RELATED_PRODUCT_CATEGORY('part',$,(#1215));
#1572 = CONTEXT_DEPENDENT_SHAPE_REPRESENTATION(#1573,#1575);
#1573 = ( REPRESENTATION_RELATIONSHIP('','',#1218,#1187) 
REPRESENTATION_RELATIONSHIP_WITH_TRANSFORMATION(#1574) 
SHAPE_REPRESENTATION_RELATIONSHIP() );
#1574 = ITEM_DEFINED_TRANSFORMATION('','',#11,#1192);
#1575 = PRODUCT_DEFINITION_SHAPE('Placement','Placement of an item',
  #1576);
#1576 = NEXT_ASSEMBLY_USAGE_OCCURRENCE('3444','1','',#1182,#1213,$);
#1577 = CONTEXT_DEPENDENT_SHAPE_REPRESENTATION(#1578,#1580);
#1578 = ( REPRESENTATION_RELATIONSHIP('','',#1218,#1187) 
REPRESENTATION_RELATIONSHIP_WITH_TRANSFORMATION(#1579) 
SHAPE_REPRESENTATION_RELATIONSHIP() );
#1579 = ITEM_DEFINED_TRANSFORMATION('','',#11,#1196);
#1580 = PRODUCT_DEFINITION_SHAPE('Placement','Placement of an item',
  #1581);
#1581 = NEXT_ASSEMBLY_USAGE_OCCURRENCE('3445','2','',#1182,#1213,$);
#1582 = MECHANICAL_DESIGN_GEOMETRIC_PRESENTATION_REPRESENTATION('',(
    #1583),#1159);
#1583 = STYLED_ITEM('color',(#1584),#68);
#1584 = PRESENTATION_STYLE_ASSIGNMENT((#1585,#1591));
#1585 = SURFACE_STYLE_USAGE(.BOTH.,#1586);
#1586 = SURFACE_SIDE_STYLE('',(#1587));
#1587 = SURFACE_STYLE_FILL_AREA(#1588);
#1588 = FILL_AREA_STYLE('',(#1589));
#1589 = FILL_AREA_STYLE_COLOUR('',#1590);
#1590 = COLOUR_RGB('',0.250980406631,0.250980406631,0.250980406631);
#1591 = CURVE_STYLE('',#1592,POSITIVE_LENGTH_MEASURE(0.1),#1593);
#1592 = DRAUGHTING_PRE_DEFINED_CURVE_FONT('continuous');
#1593 = COLOUR_RGB('',9.803921802644E-02,9.803921802644E-02,
  9.803921802644E-02);
#1594 = MECHANICAL_DESIGN_GEOMETRIC_PRESENTATION_REPRESENTATION('',(
    #1595),#1561);
#1595 = STYLED_ITEM('color',(#1596),#1219);
#1596 = PRESENTATION_STYLE_ASSIGNMENT((#1597,#1603));
#1597 = SURFACE_STYLE_USAGE(.BOTH.,#1598);
#1598 = SURFACE_SIDE_STYLE('',(#1599));
#1599 = SURFACE_STYLE_FILL_AREA(#1600);
#1600 = FILL_AREA_STYLE('',(#1601));
#1601 = FILL_AREA_STYLE_COLOUR('',#1602);
#1602 = COLOUR_RGB('',0.796078452645,0.823529417451,0.937254901616);
#1603 = CURVE_STYLE('',#1604,POSITIVE_LENGTH_MEASURE(0.1),#1593);
#1604 = DRAUGHTING_PRE_DEFINED_CURVE_FONT('continuous');
ENDSEC;
END-ISO-10303-21;
